P1
101 103
00000000000000000000000000000000000000000000010000010000000000000000010000000000000000000000000000000
00000000000000000000000000000000000000000000000000000000000000000000000000000000010000000000000000000
00000000000000000000000000000000000000000000000000000000000000000001000000000000000000000000000000000
00000000000000000000000000000010000000000000000000000001000000000000000000000000000000000000000000000
01000000000000000000000000000000000000000000000000000000000000000000000000000000000000010000000000000
00000000000000000000000000000000000000000000000100000000000000000000000000000000000000000000000000000
00000000000000000000000000000000000000000000000000000000000000000000000000000000000000000000000000000
00000000000000001000000000000000000000000000000000000010000000000000000000000000000000000000000000010
00000000000000000000000000000000000000000000000000000010000000000000000000000000000000000000000000000
00000000000000000001000000000000000000000000000000000000000000000010000000000000000000000000000000000
00000000000000000010000000000000000000000000000000000000000000000000000000000000000000000000000000100
00000000000000000000000000000000000000000000000000000000000000000000000000000000000000000000000000000
00000000000010000000000000000000000000000000000100000000000000000000000000000000100000000000000000000
00000100000000000000000000000000000000000000000000000000100010000000100000000000000000000000000000000
00000001000000010000000000000000000000000000000000000000000000000000000000000000000000000000000000000
00000000000000000000000000000000000000000000000000000000000000000000000000000000000000000000000000000
00000000000000000000010000000000000000000000100000000000000000000000000100000000000000000000010000000
00000000000000000000000000000000000000000000000000000000000000000000000000000000000000000000000000000
00000000000000000000001000000000000000000000000000000000000000000000000000000000000000000001000000000
00000000000010000000000000000000000000000000000010000000000000000000000000000000000000000000000000000
00000000000000000000000000000010000000000000000000000000000000000000000100000000000000000000100000000
00100000000010000000000000000000000000000000000000000000000000000000000000000000000000000000000000010
00000000000000000000000000000000000000000000000000000000000100000000000000000000000000000000000000000
00000000000000000000000000000000000000000000000000000000000000000000000000000000000000000000000100000
00000000001000000000000000000000000000000000000000000000000000000000000000000000000000000000000000000
00000000000000000000000000000000000000000000000000000000000000000000000000000000000000000000000000000
00000000000000000000000000000000000000000000000000000000000000000000000000000000000000000000000000000
00000000000000000000000000000000000000000010000000000000000000000000100000000000001000000000000000000
00000000000000000000000000100000000000000000000000000000000000000000000000000000000000000000000000000
00000000100000000000000000000000000000000000000000000000000000100000000000000000000000000000000000000
00000000000000000000000000000000000000000000010000000000000000000000000000000000000000000000100000000
00000000000000000000000000000000000000000000000000000000000000000000000000000010000000000000100000000
00000000000000000000000000000000000000000100000000000000000000000000100000000000000000000000000000000
00000000000000000000000000000000000000000000000000000000000000000000000000000000000000000000000000000
00001000000010000000000000000000001000000000000000000000000000000000000000000000000000000000000000000
00000000000000000000000000000000000000000000000000000000000000000000000000000000000000000000000000000
00000000000000000000000000000000000000000000000000000000000000000000000000001000000000000000000000000
00000000001000000100000000000000000000000000000000000000000000000000000000000000000000000000000000000
00000000000000000000000000000000000000000000000000000000000000000000000000000000000000000000000000000
00000000001000000000000000000000000000000000100000000000010000000000010000000000000000000000000000000
00000000000000000000000000000000000000000000000000010010000000000000000000000000000000000000000000000
00000000000000000000000000000000000000000000000000000000000000000000000000000000000000000000000000000
00000010000000000000000000000000000000000011111111111111111111111111111110000000000000000000000000000
00000000000000000000000000000000000000000010000000000000000000000000000010000000000000000000000000000
00000000000000000000000000000000000000000010000000000000000000000000000010000000000000000000000000000
00000000000000000000000000000000000010000010000000000000000000000000000010000000000000000000000000000
00000000000000000000000000000000000000000010000000000000000000000000000010000000000000000000000000000
00000000000000000000000000000100000000000010000000000000010000000000000010000000000000000000000000000
00000000000000000000000000000000000000000010000000000000111000000000000010000000000000000000000000000
10001000000000000000000000000000000000000010000000000001111100000000000010000000000000000000000000000
00000000000000000000001000000000000000000010000000000011111110000000000010000000000000000000000000000
00000000000000000000000000000000000000000010000000000111111111000000000010000000000000000000000000000
00000000000000000001000000000000000000000010000000000001111100000000000010000000000000000010010000000
00000000000000000000000000000000000000000010000000000011111110000000000010000000000000000000000000000
00000000000000000000000000001000000000000010000000000111111111000000000010000000000000000001000000001
00000000000000000000000000000000000000000010000000001111111111100000000010000000000100000000000000000
00000000000000000000000000000000000000000010000000011111111111110000000010000000000000010000000000000
00000000000000000000000000000000000000000010000000000111111111000000000010000000000000000000000000000
00000000000000000000000000000000000000000010000000001111111111100000000010000000000000000000000000000
00000000001000000000000000000000000000000010000000011111111111110000000010000000000000000000000000000
01000000000000000000010000001000000010000010000000111111111111111000000010000000000000000000000000000
00000000000000000000000000000000000000000010000001111111111111111100000010000000000000000000000000000
00000000000000000000000000000000010000000010000000011111111111110000000010000000000000000000000000000
00000001000000000000000000000000000000000010000000111111111111111000000010000000000000010000000000000
00000000000000000000000010000000000000000010000001111111111111111100000010000000000000000000000000010
00000000000000000000000000000000100000000010000011111111111111111110000010000000000000000000000000000
00000000000000000000010000000000000000000010000111111111111111111111000010000000000000000000000000000
00000000000000000000100000000000000000000010000000000000111000000000000010000000000000000000000000000
00000000000000000000000000000000001000000010000000000000111000000000000010000000000000000000000000000
00000000000000000000000000000000000000100010000000000000111000000000000010000000000000000000000000000
00000000000000000000000000001000000000000010000000000000000000000000000010000000000100000000000000000
00000000000000000000000000000000010000000010000000000000000000000000000010000000000000000000000000001
00000000000000000000000000000000000000001010000000000000000000000000000010000000000001000000000000000
00000000000000000000000000000000000000000010000000000000000000000000000010000000000001000000000000000
00000010000000000000000001010000000000000011111111111111111111111111111110000000000000000000010000000
00000000000000000000000000000000000000000000000000000000000000000000000000000000000000000000000000000
00000000000000000000000000000000000000000000001000000000000000000000000000000000000000000000000000000
00000000000000000000000000000000000000001000000000000000000000000000000000000100000000000000000000000
00000000000000000000000000000000000000000000000000000000000000000000000000000000001000000000000000000
00000100000000000000000000000000000000000000000000000000000000000000000000000000000000000000000000000
00000000000000000000000000000000000000000000000000000000000000000000000000000000000000000100000100000
00000000000000000000000000000000000000000000000000000000000000000000000000000000000000000000000000000
00000000000000000000000000000000000000000000000000000001000000000000000000000000000000000000000000000
00000000000000000000000000000000000000000000000000000000000000000000000000000000000000000000000000000
00000000000000000000000000000000000000000000000000000000000000000000000000000000000000010000000000000
00000000000010000000000000000000000000000000000000000000000000000000000000000000000000000000000000000
00000000000000000000000000000000000000000000000000000000000000000000000000000000000000000000000000000
00000000000000000010000000000000000000000000000001000000000000000000000000000000000000000000000000000
00000000000000000000000000000000000000010000000010000100000000000000000000000000000000000000000000000
10000000000000000000000000000000000000000000000000000000000000000001010000000000000000000001000000000
00000000000000000000100000000000000000000000000000000000000000000000000000000000000000000000000000000
00000000000000000000000000000000000000000000000000000000000100000000000000000000000010000000000000000
00000000000000000000000000000000000000000000000000000000000000000000000000000000000000000000000000000
00000000000000000001000000000000000000000000000000000000000000000000000000000000000000000000000000000
00000000000000000000000000000000000100000000000000000000000010000000000000000000001000000000000000000
00000000000000000000000000000000000000000000000000000000000000000000000000000000000010000000000000000
00000000000000000000000000000000000000000000000000000000000000000001000000000000000000000000000000000
00000000000000000000000000000000000000000000000000000000000000000001000000000000000000000000000000000
00000001000000000000000000000010000000001000000000000000000000000000000000000000000000000000000000000
00000000000000000000000000000000000000000000000000000000000000000000000000000000000000000000000000000
00000000010000000000000000001000000000000010001000000000000000000000000000000000000000000000000000000
00000000000000000000000000000000010000000000000000000000000000001000000000000000000000000000010000000
00000000000000000000000000000000000000000000000000000000000000000000000000000000000000000000000000000
