<svg xmlns="http://www.w3.org/2000/svg" xmlns:xlink="http://www.w3.org/1999/xlink" width="1747pt" height="1721pt" viewBox="0.00 0.00 1747.40 1720.76">
<g id="graph0" class="graph" transform="scale(1 1) rotate(0) translate(4 1716.76)">
<title>aoc</title>
<polygon fill="white" stroke="none" points="-4,4 -4,-1716.76 1743.4,-1716.76 1743.4,4 -4,4"/>
<!-- broadcaster -->
<g id="node1" class="node">
<title>broadcaster</title>
<ellipse fill="none" stroke="black" cx="826.68" cy="-829.87" rx="55.54" ry="18"/>
<text text-anchor="middle" x="826.68" y="-825.67" font-family="Times,serif" font-size="14.00">broadcaster</text>
</g>
<!-- gz -->
<g id="node2" class="node">
<title>gz</title>
<ellipse fill="none" stroke="black" cx="1195.46" cy="-891.39" rx="27" ry="18"/>
<text text-anchor="middle" x="1195.46" y="-887.19" font-family="Times,serif" font-size="14.00">gz</text>
</g>
<!-- broadcaster&#45;&gt;gz -->
<g id="edge1" class="edge">
<title>broadcaster-&gt;gz</title>
<path fill="none" stroke="black" d="M876.42,-838.17C951.16,-850.64 1090.81,-873.93 1157.77,-885.1"/>
<polygon fill="black" stroke="black" points="1157.08,-888.53 1167.52,-886.73 1158.23,-881.63 1157.08,-888.53"/>
</g>
<!-- xg -->
<g id="node3" class="node">
<title>xg</title>
<ellipse fill="none" stroke="black" cx="776.78" cy="-1181.41" rx="27" ry="18"/>
<text text-anchor="middle" x="776.78" y="-1177.21" font-family="Times,serif" font-size="14.00">xg</text>
</g>
<!-- broadcaster&#45;&gt;xg -->
<g id="edge2" class="edge">
<title>broadcaster-&gt;xg</title>
<path fill="none" stroke="black" d="M824.07,-848.28C815.92,-905.7 790.91,-1081.92 780.94,-1152.11"/>
<polygon fill="black" stroke="black" points="777.52,-1151.29 779.58,-1161.68 784.45,-1152.27 777.52,-1151.29"/>
</g>
<!-- cd -->
<g id="node4" class="node">
<title>cd</title>
<ellipse fill="none" stroke="black" cx="504.55" cy="-790.74" rx="27" ry="18"/>
<text text-anchor="middle" x="504.55" y="-786.54" font-family="Times,serif" font-size="14.00">cd</text>
</g>
<!-- broadcaster&#45;&gt;cd -->
<g id="edge3" class="edge">
<title>broadcaster-&gt;cd</title>
<path fill="none" stroke="black" d="M774.21,-823.5C709.16,-815.6 599.88,-802.32 542.44,-795.34"/>
<polygon fill="black" stroke="black" points="543.19,-791.91 532.85,-794.17 542.35,-798.86 543.19,-791.91"/>
</g>
<!-- sg -->
<g id="node5" class="node">
<title>sg</title>
<ellipse fill="none" stroke="black" cx="908.05" cy="-495.57" rx="27" ry="18"/>
<text text-anchor="middle" x="908.05" y="-491.37" font-family="Times,serif" font-size="14.00">sg</text>
</g>
<!-- broadcaster&#45;&gt;sg -->
<g id="edge4" class="edge">
<title>broadcaster-&gt;sg</title>
<path fill="none" stroke="black" d="M831.06,-811.9C844.38,-757.14 884.57,-592.03 900.96,-524.67"/>
<polygon fill="black" stroke="black" points="904.33,-525.65 903.29,-515.11 897.53,-523.99 904.33,-525.65"/>
</g>
<!-- bd -->
<g id="node27" class="node">
<title>bd</title>
<ellipse fill="none" stroke="black" cx="1478.74" cy="-996.89" rx="27" ry="18"/>
<text text-anchor="middle" x="1478.74" y="-992.69" font-family="Times,serif" font-size="14.00">bd</text>
</g>
<!-- gz&#45;&gt;bd -->
<g id="edge53" class="edge">
<title>gz-&gt;bd</title>
<path fill="none" stroke="black" d="M1216.35,-903.27C1264.11,-924.88 1381.7,-968.96 1441.92,-988.13"/>
<polygon fill="black" stroke="black" points="1440.78,-991.44 1451.37,-991.06 1442.86,-984.75 1440.78,-991.44"/>
</g>
<!-- kb -->
<g id="node47" class="node">
<title>kb</title>
<ellipse fill="none" stroke="black" cx="1368.68" cy="-868.99" rx="27" ry="18"/>
<text text-anchor="middle" x="1368.68" y="-864.79" font-family="Times,serif" font-size="14.00">kb</text>
</g>
<!-- gz&#45;&gt;kb -->
<g id="edge54" class="edge">
<title>gz-&gt;kb</title>
<path fill="none" stroke="black" d="M1222.15,-887.94C1251.18,-884.18 1297.83,-878.15 1330.68,-873.91"/>
<polygon fill="black" stroke="black" points="1330.71,-877.43 1340.18,-872.68 1329.81,-870.49 1330.71,-877.43"/>
</g>
<!-- pm -->
<g id="node20" class="node">
<title>pm</title>
<ellipse fill="none" stroke="black" cx="739.51" cy="-1472.66" rx="27" ry="18"/>
<text text-anchor="middle" x="739.51" y="-1468.46" font-family="Times,serif" font-size="14.00">pm</text>
</g>
<!-- xg&#45;&gt;pm -->
<g id="edge34" class="edge">
<title>xg-&gt;pm</title>
<path fill="none" stroke="black" d="M770.99,-1199.18C760.67,-1247.71 743.12,-1382.84 739.01,-1443.06"/>
<polygon fill="black" stroke="black" points="735.53,-1442.69 738.45,-1452.87 742.52,-1443.09 735.53,-1442.69"/>
</g>
<!-- cf -->
<g id="node36" class="node">
<title>cf</title>
<ellipse fill="none" stroke="black" cx="815.98" cy="-1357.13" rx="27" ry="18"/>
<text text-anchor="middle" x="815.98" y="-1352.93" font-family="Times,serif" font-size="14.00">cf</text>
</g>
<!-- xg&#45;&gt;cf -->
<g id="edge33" class="edge">
<title>xg-&gt;cf</title>
<path fill="none" stroke="black" d="M780.83,-1199.55C787.63,-1230.01 801.38,-1291.68 809.52,-1328.19"/>
<polygon fill="black" stroke="black" points="806.03,-1328.61 811.62,-1337.6 812.86,-1327.08 806.03,-1328.61"/>
</g>
<!-- cc -->
<g id="node9" class="node">
<title>cc</title>
<ellipse fill="none" stroke="black" cx="271.71" cy="-710.1" rx="27" ry="18"/>
<text text-anchor="middle" x="271.71" y="-705.9" font-family="Times,serif" font-size="14.00">cc</text>
</g>
<!-- cd&#45;&gt;cc -->
<g id="edge29" class="edge">
<title>cd-&gt;cc</title>
<path fill="none" stroke="black" d="M483.59,-779.06C444.17,-762.11 358.57,-732.16 309.07,-717.72"/>
<polygon fill="black" stroke="black" points="310.23,-714.41 299.66,-715.05 308.33,-721.15 310.23,-714.41"/>
</g>
<!-- nl -->
<g id="node12" class="node">
<title>nl</title>
<ellipse fill="none" stroke="black" cx="342.5" cy="-828.06" rx="27" ry="18"/>
<text text-anchor="middle" x="342.5" y="-823.86" font-family="Times,serif" font-size="14.00">nl</text>
</g>
<!-- cd&#45;&gt;nl -->
<g id="edge30" class="edge">
<title>cd-&gt;nl</title>
<path fill="none" stroke="black" d="M478.87,-796.65C452.05,-802.83 409.71,-812.58 379.33,-819.58"/>
<polygon fill="black" stroke="black" points="378.76,-816.12 369.8,-821.78 380.33,-822.94 378.76,-816.12"/>
</g>
<!-- rs -->
<g id="node8" class="node">
<title>rs</title>
<ellipse fill="none" stroke="black" cx="1011.49" cy="-270.13" rx="27" ry="18"/>
<text text-anchor="middle" x="1011.49" y="-265.93" font-family="Times,serif" font-size="14.00">rs</text>
</g>
<!-- sg&#45;&gt;rs -->
<g id="edge85" class="edge">
<title>sg-&gt;rs</title>
<path fill="none" stroke="black" d="M919.86,-479.12C941.27,-441.06 984.83,-346.69 1003.33,-298.86"/>
<polygon fill="black" stroke="black" points="1006.52,-300.31 1006.74,-289.72 999.96,-297.86 1006.52,-300.31"/>
</g>
<!-- rh -->
<g id="node56" class="node">
<title>rh</title>
<ellipse fill="none" stroke="black" cx="879.28" cy="-336.84" rx="27" ry="18"/>
<text text-anchor="middle" x="879.28" y="-332.64" font-family="Times,serif" font-size="14.00">rh</text>
</g>
<!-- sg&#45;&gt;rh -->
<g id="edge86" class="edge">
<title>sg-&gt;rh</title>
<path fill="none" stroke="black" d="M904.75,-477.36C899.8,-450.09 890.43,-398.38 884.54,-365.87"/>
<polygon fill="black" stroke="black" points="888.03,-365.54 882.81,-356.33 881.15,-366.79 888.03,-365.54"/>
</g>
<!-- jx -->
<g id="node6" class="node">
<title>jx</title>
<ellipse fill="none" stroke="black" cx="1014.35" cy="-18" rx="27" ry="18"/>
<text text-anchor="middle" x="1014.35" y="-13.8" font-family="Times,serif" font-size="14.00">jx</text>
</g>
<!-- rt -->
<g id="node7" class="node">
<title>rt</title>
<ellipse fill="none" stroke="black" cx="912.66" cy="-46.34" rx="27" ry="18"/>
<text text-anchor="middle" x="912.66" y="-42.14" font-family="Times,serif" font-size="14.00">rt</text>
</g>
<!-- jx&#45;&gt;rt -->
<g id="edge5" class="edge">
<title>jx-&gt;rt</title>
<path fill="none" stroke="black" d="M988.95,-25.08C976.73,-28.49 961.86,-32.63 948.51,-36.35"/>
<polygon fill="black" stroke="black" points="947.89,-32.89 939.2,-38.95 949.77,-39.63 947.89,-32.89"/>
</g>
<!-- jx&#45;&gt;rs -->
<g id="edge6" class="edge">
<title>jx-&gt;rs</title>
<path fill="none" stroke="black" d="M1014.14,-36.13C1013.65,-79.19 1012.42,-187.89 1011.83,-240.59"/>
<polygon fill="black" stroke="black" points="1008.33,-240.27 1011.72,-250.31 1015.33,-240.35 1008.33,-240.27"/>
</g>
<!-- qq -->
<g id="node44" class="node">
<title>qq</title>
<ellipse fill="none" stroke="black" cx="856.57" cy="-100.26" rx="27" ry="18"/>
<text text-anchor="middle" x="856.57" y="-96.06" font-family="Times,serif" font-size="14.00">qq</text>
</g>
<!-- rt&#45;&gt;qq -->
<g id="edge45" class="edge">
<title>rt-&gt;qq</title>
<path fill="none" stroke="black" d="M897.04,-61.36C891.81,-66.38 885.86,-72.1 880.17,-77.58"/>
<polygon fill="black" stroke="black" points="877.99,-74.82 873.2,-84.27 882.84,-79.87 877.99,-74.82"/>
</g>
<!-- rs&#45;&gt;sg -->
<g id="edge95" class="edge">
<title>rs-&gt;sg</title>
<path fill="none" stroke="black" d="M999.68,-286.58C978.26,-324.65 934.71,-419.02 916.21,-466.85"/>
<polygon fill="black" stroke="black" points="913.02,-465.39 912.8,-475.98 919.58,-467.84 913.02,-465.39"/>
</g>
<!-- rs&#45;&gt;rt -->
<g id="edge100" class="edge">
<title>rs-&gt;rt</title>
<path fill="none" stroke="black" d="M1003.74,-252.57C986.63,-213.84 945.56,-120.83 924.93,-74.11"/>
<polygon fill="black" stroke="black" points="928.24,-72.94 920.99,-65.2 921.83,-75.77 928.24,-72.94"/>
</g>
<!-- dd -->
<g id="node39" class="node">
<title>dd</title>
<ellipse fill="none" stroke="black" cx="967.47" cy="-576.86" rx="27" ry="18"/>
<text text-anchor="middle" x="967.47" y="-572.66" font-family="Times,serif" font-size="14.00">dd</text>
</g>
<!-- rs&#45;&gt;dd -->
<g id="edge96" class="edge">
<title>rs-&gt;dd</title>
<path fill="none" stroke="black" d="M1008.87,-288.4C1001.51,-339.65 980.64,-485.12 971.66,-547.68"/>
<polygon fill="black" stroke="black" points="968.25,-546.8 970.29,-557.19 975.18,-547.79 968.25,-546.8"/>
</g>
<!-- nb -->
<g id="node40" class="node">
<title>nb</title>
<ellipse fill="none" stroke="black" cx="894.76" cy="-182.8" rx="27" ry="18"/>
<text text-anchor="middle" x="894.76" y="-178.6" font-family="Times,serif" font-size="14.00">nb</text>
</g>
<!-- rs&#45;&gt;nb -->
<g id="edge99" class="edge">
<title>rs-&gt;nb</title>
<path fill="none" stroke="black" d="M993.25,-256.49C974.15,-242.19 943.93,-219.59 922,-203.18"/>
<polygon fill="black" stroke="black" points="924.19,-200.45 914.08,-197.26 919.99,-206.05 924.19,-200.45"/>
</g>
<!-- sl -->
<g id="node41" class="node">
<title>sl</title>
<ellipse fill="none" stroke="black" cx="1049.54" cy="-153.24" rx="27" ry="18"/>
<text text-anchor="middle" x="1049.54" y="-149.04" font-family="Times,serif" font-size="14.00">sl</text>
</g>
<!-- rs&#45;&gt;sl -->
<g id="edge97" class="edge">
<title>rs-&gt;sl</title>
<path fill="none" stroke="black" d="M1017.35,-252.12C1023.46,-233.36 1033.12,-203.7 1040.26,-181.75"/>
<polygon fill="black" stroke="black" points="1043.5,-183.11 1043.27,-172.51 1036.84,-180.94 1043.5,-183.11"/>
</g>
<!-- kx -->
<g id="node54" class="node">
<title>kx</title>
<ellipse fill="none" stroke="black" cx="1108.92" cy="-50.59" rx="27" ry="18"/>
<text text-anchor="middle" x="1108.92" y="-46.39" font-family="Times,serif" font-size="14.00">kx</text>
</g>
<!-- rs&#45;&gt;kx -->
<g id="edge98" class="edge">
<title>rs-&gt;kx</title>
<path fill="none" stroke="black" d="M1019.3,-252.54C1036.15,-214.56 1076.06,-124.64 1096.45,-78.69"/>
<polygon fill="black" stroke="black" points="1099.6,-80.22 1100.46,-69.66 1093.2,-77.38 1099.6,-80.22"/>
</g>
<!-- cc&#45;&gt;cd -->
<g id="edge7" class="edge">
<title>cc-&gt;cd</title>
<path fill="none" stroke="black" d="M292.67,-721.78C332.1,-738.74 417.7,-768.68 467.19,-783.12"/>
<polygon fill="black" stroke="black" points="466.03,-786.43 476.61,-785.79 467.94,-779.69 466.03,-786.43"/>
</g>
<!-- fc -->
<g id="node10" class="node">
<title>fc</title>
<ellipse fill="none" stroke="black" cx="587.37" cy="-808.37" rx="27" ry="18"/>
<text text-anchor="middle" x="587.37" y="-804.17" font-family="Times,serif" font-size="14.00">fc</text>
</g>
<!-- cc&#45;&gt;fc -->
<g id="edge8" class="edge">
<title>cc-&gt;fc</title>
<path fill="none" stroke="black" d="M296.48,-717.81C352.15,-735.14 487.31,-777.22 551.89,-797.33"/>
<polygon fill="black" stroke="black" points="550.69,-800.62 561.28,-800.25 552.77,-793.94 550.69,-800.62"/>
</g>
<!-- qr -->
<g id="node11" class="node">
<title>qr</title>
<ellipse fill="none" stroke="black" cx="148.78" cy="-554.48" rx="27" ry="18"/>
<text text-anchor="middle" x="148.78" y="-550.28" font-family="Times,serif" font-size="14.00">qr</text>
</g>
<!-- cc&#45;&gt;qr -->
<g id="edge9" class="edge">
<title>cc-&gt;qr</title>
<path fill="none" stroke="black" d="M259.02,-694.04C237.58,-666.89 194.04,-611.78 168.56,-579.53"/>
<polygon fill="black" stroke="black" points="171.47,-577.56 162.52,-571.88 165.98,-581.9 171.47,-577.56"/>
</g>
<!-- cc&#45;&gt;nl -->
<g id="edge10" class="edge">
<title>cc-&gt;nl</title>
<path fill="none" stroke="black" d="M282.01,-727.26C293.71,-746.76 312.96,-778.84 326.6,-801.57"/>
<polygon fill="black" stroke="black" points="323.5,-803.2 331.65,-809.97 329.5,-799.6 323.5,-803.2"/>
</g>
<!-- gk -->
<g id="node13" class="node">
<title>gk</title>
<ellipse fill="none" stroke="black" cx="228.1" cy="-531.02" rx="27" ry="18"/>
<text text-anchor="middle" x="228.1" y="-526.82" font-family="Times,serif" font-size="14.00">gk</text>
</g>
<!-- cc&#45;&gt;gk -->
<g id="edge11" class="edge">
<title>cc-&gt;gk</title>
<path fill="none" stroke="black" d="M267.29,-691.95C259.75,-660.98 244.33,-597.67 235.24,-560.36"/>
<polygon fill="black" stroke="black" points="238.66,-559.59 232.89,-550.7 231.86,-561.24 238.66,-559.59"/>
</g>
<!-- zr -->
<g id="node14" class="node">
<title>zr</title>
<ellipse fill="none" stroke="black" cx="53.55" cy="-730.44" rx="27" ry="18"/>
<text text-anchor="middle" x="53.55" y="-726.24" font-family="Times,serif" font-size="14.00">zr</text>
</g>
<!-- cc&#45;&gt;zr -->
<g id="edge12" class="edge">
<title>cc-&gt;zr</title>
<path fill="none" stroke="black" d="M244.52,-712.64C206.12,-716.22 135.82,-722.77 92.06,-726.85"/>
<polygon fill="black" stroke="black" points="91.88,-723.35 82.25,-727.77 92.53,-730.32 91.88,-723.35"/>
</g>
<!-- dn -->
<g id="node31" class="node">
<title>dn</title>
<ellipse fill="none" stroke="black" cx="908.51" cy="-891.89" rx="27" ry="18"/>
<text text-anchor="middle" x="908.51" y="-887.69" font-family="Times,serif" font-size="14.00">dn</text>
</g>
<!-- fc&#45;&gt;dn -->
<g id="edge88" class="edge">
<title>fc-&gt;dn</title>
<path fill="none" stroke="black" d="M612.84,-815C669.52,-829.74 806.25,-865.3 871.99,-882.4"/>
<polygon fill="black" stroke="black" points="871.01,-885.76 881.57,-884.89 872.77,-878.98 871.01,-885.76"/>
</g>
<!-- qr&#45;&gt;gk -->
<g id="edge59" class="edge">
<title>qr-&gt;gk</title>
<path fill="none" stroke="black" d="M173.88,-547.06C179.72,-545.33 186.05,-543.46 192.26,-541.62"/>
<polygon fill="black" stroke="black" points="193.12,-545.02 201.71,-538.83 191.13,-538.31 193.12,-545.02"/>
</g>
<!-- pj -->
<g id="node46" class="node">
<title>pj</title>
<ellipse fill="none" stroke="black" cx="183.28" cy="-846.8" rx="27" ry="18"/>
<text text-anchor="middle" x="183.28" y="-842.6" font-family="Times,serif" font-size="14.00">pj</text>
</g>
<!-- nl&#45;&gt;pj -->
<g id="edge108" class="edge">
<title>nl-&gt;pj</title>
<path fill="none" stroke="black" d="M315.49,-831.24C289.68,-834.28 250.52,-838.89 221.51,-842.3"/>
<polygon fill="black" stroke="black" points="221.18,-838.81 211.66,-843.46 222,-845.77 221.18,-838.81"/>
</g>
<!-- ln -->
<g id="node57" class="node">
<title>ln</title>
<ellipse fill="none" stroke="black" cx="125.34" cy="-606.54" rx="27" ry="18"/>
<text text-anchor="middle" x="125.34" y="-602.34" font-family="Times,serif" font-size="14.00">ln</text>
</g>
<!-- gk&#45;&gt;ln -->
<g id="edge77" class="edge">
<title>gk-&gt;ln</title>
<path fill="none" stroke="black" d="M209.73,-544.52C193.9,-556.16 170.82,-573.12 152.8,-586.36"/>
<polygon fill="black" stroke="black" points="151.1,-583.27 145.12,-592.01 155.25,-588.91 151.1,-583.27"/>
</g>
<!-- cq -->
<g id="node17" class="node">
<title>cq</title>
<ellipse fill="none" stroke="black" cx="90.16" cy="-858.98" rx="27" ry="18"/>
<text text-anchor="middle" x="90.16" y="-854.78" font-family="Times,serif" font-size="14.00">cq</text>
</g>
<!-- zr&#45;&gt;cq -->
<g id="edge15" class="edge">
<title>zr-&gt;cq</title>
<path fill="none" stroke="black" d="M58.72,-748.59C64.74,-769.74 74.77,-804.97 81.88,-829.94"/>
<polygon fill="black" stroke="black" points="78.5,-830.82 84.6,-839.48 85.23,-828.9 78.5,-830.82"/>
</g>
<!-- qs -->
<g id="node15" class="node">
<title>qs</title>
<ellipse fill="none" stroke="black" cx="1130.23" cy="-116.55" rx="27" ry="18"/>
<text text-anchor="middle" x="1130.23" y="-112.35" font-family="Times,serif" font-size="14.00">qs</text>
</g>
<!-- qs&#45;&gt;rs -->
<g id="edge14" class="edge">
<title>qs-&gt;rs</title>
<path fill="none" stroke="black" d="M1117.75,-132.7C1097.05,-159.47 1055.46,-213.26 1030.9,-245.02"/>
<polygon fill="black" stroke="black" points="1028.44,-242.49 1025.09,-252.54 1033.98,-246.77 1028.44,-242.49"/>
</g>
<!-- cl -->
<g id="node16" class="node">
<title>cl</title>
<ellipse fill="none" stroke="black" cx="1188.17" cy="-224.74" rx="27" ry="18"/>
<text text-anchor="middle" x="1188.17" y="-220.54" font-family="Times,serif" font-size="14.00">cl</text>
</g>
<!-- qs&#45;&gt;cl -->
<g id="edge13" class="edge">
<title>qs-&gt;cl</title>
<path fill="none" stroke="black" d="M1139.54,-133.94C1148.71,-151.05 1162.84,-177.45 1173.51,-197.38"/>
<polygon fill="black" stroke="black" points="1170.36,-198.91 1178.17,-206.07 1176.53,-195.6 1170.36,-198.91"/>
</g>
<!-- cl&#45;&gt;rs -->
<g id="edge65" class="edge">
<title>cl-&gt;rs</title>
<path fill="none" stroke="black" d="M1162.48,-231.34C1132.3,-239.1 1082.02,-252.01 1047.84,-260.79"/>
<polygon fill="black" stroke="black" points="1047.21,-257.34 1038.39,-263.22 1048.95,-264.12 1047.21,-257.34"/>
</g>
<!-- zx -->
<g id="node52" class="node">
<title>zx</title>
<ellipse fill="none" stroke="black" cx="1200.92" cy="-160.65" rx="27" ry="18"/>
<text text-anchor="middle" x="1200.92" y="-156.45" font-family="Times,serif" font-size="14.00">zx</text>
</g>
<!-- cl&#45;&gt;zx -->
<g id="edge64" class="edge">
<title>cl-&gt;zx</title>
<path fill="none" stroke="black" d="M1191.79,-206.55C1192.82,-201.36 1193.97,-195.58 1195.1,-189.91"/>
<polygon fill="black" stroke="black" points="1198.52,-190.64 1197.04,-180.15 1191.65,-189.28 1198.52,-190.64"/>
</g>
<!-- cq&#45;&gt;cc -->
<g id="edge58" class="edge">
<title>cq-&gt;cc</title>
<path fill="none" stroke="black" d="M107.57,-844.71C139.56,-818.47 207.86,-762.46 245.49,-731.61"/>
<polygon fill="black" stroke="black" points="247.67,-734.34 253.19,-725.3 243.24,-728.93 247.67,-734.34"/>
</g>
<!-- cj -->
<g id="node22" class="node">
<title>cj</title>
<ellipse fill="none" stroke="black" cx="41.49" cy="-798.7" rx="27" ry="18"/>
<text text-anchor="middle" x="41.49" y="-794.5" font-family="Times,serif" font-size="14.00">cj</text>
</g>
<!-- cq&#45;&gt;cj -->
<g id="edge57" class="edge">
<title>cq-&gt;cj</title>
<path fill="none" stroke="black" d="M77.11,-842.83C72.31,-836.88 66.76,-830 61.49,-823.47"/>
<polygon fill="black" stroke="black" points="64.52,-821.66 55.52,-816.08 59.08,-826.06 64.52,-821.66"/>
</g>
<!-- mx -->
<g id="node18" class="node">
<title>mx</title>
<ellipse fill="none" stroke="black" cx="527.89" cy="-1572.72" rx="27" ry="18"/>
<text text-anchor="middle" x="527.89" y="-1568.52" font-family="Times,serif" font-size="14.00">mx</text>
</g>
<!-- nr -->
<g id="node19" class="node">
<title>nr</title>
<ellipse fill="none" stroke="black" cx="620.75" cy="-1592.28" rx="27" ry="18"/>
<text text-anchor="middle" x="620.75" y="-1588.08" font-family="Times,serif" font-size="14.00">nr</text>
</g>
<!-- mx&#45;&gt;nr -->
<g id="edge16" class="edge">
<title>mx-&gt;nr</title>
<path fill="none" stroke="black" d="M553.76,-1578.17C563.04,-1580.12 573.69,-1582.37 583.73,-1584.48"/>
<polygon fill="black" stroke="black" points="582.71,-1587.85 593.22,-1586.48 584.16,-1581 582.71,-1587.85"/>
</g>
<!-- mx&#45;&gt;pm -->
<g id="edge17" class="edge">
<title>mx-&gt;pm</title>
<path fill="none" stroke="black" d="M550.14,-1562.2C587.6,-1544.49 663.45,-1508.62 706.93,-1488.06"/>
<polygon fill="black" stroke="black" points="708.33,-1491.27 715.87,-1483.84 705.34,-1484.95 708.33,-1491.27"/>
</g>
<!-- nr&#45;&gt;pm -->
<g id="edge102" class="edge">
<title>nr-&gt;pm</title>
<path fill="none" stroke="black" d="M635.79,-1577.13C656.23,-1556.55 692.94,-1519.57 716.75,-1495.58"/>
<polygon fill="black" stroke="black" points="718.96,-1498.32 723.52,-1488.76 713.99,-1493.39 718.96,-1498.32"/>
</g>
<!-- vf -->
<g id="node59" class="node">
<title>vf</title>
<ellipse fill="none" stroke="black" cx="556.7" cy="-1493.7" rx="27" ry="18"/>
<text text-anchor="middle" x="556.7" y="-1489.5" font-family="Times,serif" font-size="14.00">vf</text>
</g>
<!-- nr&#45;&gt;vf -->
<g id="edge101" class="edge">
<title>nr-&gt;vf</title>
<path fill="none" stroke="black" d="M609.89,-1575.56C599.95,-1560.26 585.09,-1537.4 573.6,-1519.72"/>
<polygon fill="black" stroke="black" points="576.83,-1518.26 568.44,-1511.78 570.96,-1522.07 576.83,-1518.26"/>
</g>
<!-- pm&#45;&gt;xg -->
<g id="edge40" class="edge">
<title>pm-&gt;xg</title>
<path fill="none" stroke="black" d="M745.3,-1454.88C755.62,-1406.35 773.17,-1271.22 777.28,-1211.01"/>
<polygon fill="black" stroke="black" points="780.76,-1211.38 777.84,-1201.2 773.77,-1210.98 780.76,-1211.38"/>
</g>
<!-- jv -->
<g id="node24" class="node">
<title>jv</title>
<ellipse fill="none" stroke="black" cx="805.77" cy="-1631.1" rx="27" ry="18"/>
<text text-anchor="middle" x="805.77" y="-1626.9" font-family="Times,serif" font-size="14.00">jv</text>
</g>
<!-- pm&#45;&gt;jv -->
<g id="edge42" class="edge">
<title>pm-&gt;jv</title>
<path fill="none" stroke="black" d="M746.85,-1490.22C758.29,-1517.58 780.48,-1570.63 794.12,-1603.25"/>
<polygon fill="black" stroke="black" points="790.72,-1604.19 797.81,-1612.06 797.18,-1601.49 790.72,-1604.19"/>
</g>
<!-- sp -->
<g id="node25" class="node">
<title>sp</title>
<ellipse fill="none" stroke="black" cx="727.33" cy="-1694.76" rx="27" ry="18"/>
<text text-anchor="middle" x="727.33" y="-1690.56" font-family="Times,serif" font-size="14.00">sp</text>
</g>
<!-- pm&#45;&gt;sp -->
<g id="edge43" class="edge">
<title>pm-&gt;sp</title>
<path fill="none" stroke="black" d="M738.51,-1490.84C736.41,-1529.07 731.53,-1618.12 728.96,-1664.88"/>
<polygon fill="black" stroke="black" points="725.47,-1664.64 728.42,-1674.82 732.46,-1665.03 725.47,-1664.64"/>
</g>
<!-- kt -->
<g id="node29" class="node">
<title>kt</title>
<ellipse fill="none" stroke="black" cx="701.46" cy="-1649.06" rx="27" ry="18"/>
<text text-anchor="middle" x="701.46" y="-1644.86" font-family="Times,serif" font-size="14.00">kt</text>
</g>
<!-- pm&#45;&gt;kt -->
<g id="edge39" class="edge">
<title>pm-&gt;kt</title>
<path fill="none" stroke="black" d="M735.58,-1490.87C728.98,-1521.45 715.63,-1583.36 707.73,-1620.01"/>
<polygon fill="black" stroke="black" points="704.38,-1618.95 705.69,-1629.47 711.22,-1620.43 704.38,-1618.95"/>
</g>
<!-- xp -->
<g id="node42" class="node">
<title>xp</title>
<ellipse fill="none" stroke="black" cx="842.87" cy="-1175.3" rx="27" ry="18"/>
<text text-anchor="middle" x="842.87" y="-1171.1" font-family="Times,serif" font-size="14.00">xp</text>
</g>
<!-- pm&#45;&gt;xp -->
<g id="edge41" class="edge">
<title>pm-&gt;xp</title>
<path fill="none" stroke="black" d="M745.66,-1454.95C762.89,-1405.38 811.72,-1264.9 832.88,-1204.02"/>
<polygon fill="black" stroke="black" points="836.14,-1205.31 836.12,-1194.72 829.53,-1203.02 836.14,-1205.31"/>
</g>
<!-- mj -->
<g id="node21" class="node">
<title>mj</title>
<ellipse fill="none" stroke="black" cx="130.07" cy="-692.68" rx="27" ry="18"/>
<text text-anchor="middle" x="130.07" y="-688.48" font-family="Times,serif" font-size="14.00">mj</text>
</g>
<!-- mj&#45;&gt;cc -->
<g id="edge19" class="edge">
<title>mj-&gt;cc</title>
<path fill="none" stroke="black" d="M157.05,-696C178.71,-698.66 209.39,-702.44 233.56,-705.41"/>
<polygon fill="black" stroke="black" points="232.98,-708.87 243.34,-706.61 233.84,-701.92 232.98,-708.87"/>
</g>
<!-- mj&#45;&gt;qr -->
<g id="edge18" class="edge">
<title>mj-&gt;qr</title>
<path fill="none" stroke="black" d="M132.56,-674.33C135.69,-651.18 141.12,-611.08 144.82,-583.7"/>
<polygon fill="black" stroke="black" points="148.27,-584.35 146.14,-573.97 141.33,-583.41 148.27,-584.35"/>
</g>
<!-- cj&#45;&gt;cc -->
<g id="edge20" class="edge">
<title>cj-&gt;cc</title>
<path fill="none" stroke="black" d="M65.26,-789.56C106.21,-773.8 190.2,-741.47 237.46,-723.29"/>
<polygon fill="black" stroke="black" points="238.58,-726.6 246.66,-719.75 236.07,-720.07 238.58,-726.6"/>
</g>
<!-- nt -->
<g id="node23" class="node">
<title>nt</title>
<ellipse fill="none" stroke="black" cx="27" cy="-676.19" rx="27" ry="18"/>
<text text-anchor="middle" x="27" y="-671.99" font-family="Times,serif" font-size="14.00">nt</text>
</g>
<!-- cj&#45;&gt;nt -->
<g id="edge21" class="edge">
<title>cj-&gt;nt</title>
<path fill="none" stroke="black" d="M39.32,-780.36C36.98,-760.58 33.22,-728.8 30.47,-705.54"/>
<polygon fill="black" stroke="black" points="33.96,-705.28 29.31,-695.76 27.01,-706.1 33.96,-705.28"/>
</g>
<!-- nt&#45;&gt;cc -->
<g id="edge74" class="edge">
<title>nt-&gt;cc</title>
<path fill="none" stroke="black" d="M53.65,-679.89C97.23,-685.92 183.87,-697.93 233.83,-704.85"/>
<polygon fill="black" stroke="black" points="233.21,-708.3 243.59,-706.21 234.17,-701.37 233.21,-708.3"/>
</g>
<!-- mn -->
<g id="node55" class="node">
<title>mn</title>
<ellipse fill="none" stroke="black" cx="62.7" cy="-587.82" rx="27" ry="18"/>
<text text-anchor="middle" x="62.7" y="-583.62" font-family="Times,serif" font-size="14.00">mn</text>
</g>
<!-- nt&#45;&gt;mn -->
<g id="edge73" class="edge">
<title>nt-&gt;mn</title>
<path fill="none" stroke="black" d="M34.05,-658.73C38.96,-646.59 45.61,-630.13 51.27,-616.12"/>
<polygon fill="black" stroke="black" points="54.47,-617.53 54.97,-606.95 47.98,-614.91 54.47,-617.53"/>
</g>
<!-- jv&#45;&gt;sp -->
<g id="edge22" class="edge">
<title>jv-&gt;sp</title>
<path fill="none" stroke="black" d="M788.36,-1645.23C778.1,-1653.55 764.93,-1664.24 753.44,-1673.56"/>
<polygon fill="black" stroke="black" points="751.42,-1670.7 745.86,-1679.72 755.83,-1676.13 751.42,-1670.7"/>
</g>
<!-- pc -->
<g id="node58" class="node">
<title>pc</title>
<ellipse fill="none" stroke="black" cx="796.21" cy="-1679.28" rx="27" ry="18"/>
<text text-anchor="middle" x="796.21" y="-1675.08" font-family="Times,serif" font-size="14.00">pc</text>
</g>
<!-- sp&#45;&gt;pc -->
<g id="edge84" class="edge">
<title>sp-&gt;pc</title>
<path fill="none" stroke="black" d="M753.37,-1688.91C755.25,-1688.48 757.17,-1688.05 759.11,-1687.62"/>
<polygon fill="black" stroke="black" points="759.66,-1691.08 768.65,-1685.47 758.13,-1684.25 759.66,-1691.08"/>
</g>
<!-- dj -->
<g id="node26" class="node">
<title>dj</title>
<ellipse fill="none" stroke="black" cx="1674.65" cy="-1061.63" rx="27" ry="18"/>
<text text-anchor="middle" x="1674.65" y="-1057.43" font-family="Times,serif" font-size="14.00">dj</text>
</g>
<!-- dj&#45;&gt;bd -->
<g id="edge23" class="edge">
<title>dj-&gt;bd</title>
<path fill="none" stroke="black" d="M1650.23,-1053.56C1615.97,-1042.24 1553.42,-1021.57 1514.08,-1008.57"/>
<polygon fill="black" stroke="black" points="1515.18,-1005.25 1504.59,-1005.43 1512.99,-1011.89 1515.18,-1005.25"/>
</g>
<!-- zc -->
<g id="node28" class="node">
<title>zc</title>
<ellipse fill="none" stroke="black" cx="1654.32" cy="-1116.08" rx="27" ry="18"/>
<text text-anchor="middle" x="1654.32" y="-1111.88" font-family="Times,serif" font-size="14.00">zc</text>
</g>
<!-- dj&#45;&gt;zc -->
<g id="edge24" class="edge">
<title>dj-&gt;zc</title>
<path fill="none" stroke="black" d="M1667.99,-1079.46C1667,-1082.12 1665.96,-1084.91 1664.91,-1087.73"/>
<polygon fill="black" stroke="black" points="1661.67,-1086.38 1661.45,-1096.98 1668.23,-1088.83 1661.67,-1086.38"/>
</g>
<!-- bd&#45;&gt;gz -->
<g id="edge79" class="edge">
<title>bd-&gt;gz</title>
<path fill="none" stroke="black" d="M1457.85,-985.01C1410.09,-963.39 1292.49,-919.31 1232.27,-900.15"/>
<polygon fill="black" stroke="black" points="1233.41,-896.84 1222.82,-897.21 1231.34,-903.52 1233.41,-896.84"/>
</g>
<!-- gm -->
<g id="node38" class="node">
<title>gm</title>
<ellipse fill="none" stroke="black" cx="1588.16" cy="-1161.62" rx="27" ry="18"/>
<text text-anchor="middle" x="1588.16" y="-1157.42" font-family="Times,serif" font-size="14.00">gm</text>
</g>
<!-- bd&#45;&gt;gm -->
<g id="edge78" class="edge">
<title>bd-&gt;gm</title>
<path fill="none" stroke="black" d="M1489.83,-1013.59C1508.92,-1042.33 1548.11,-1101.33 1570.83,-1135.53"/>
<polygon fill="black" stroke="black" points="1567.75,-1137.22 1576.2,-1143.61 1573.58,-1133.35 1567.75,-1137.22"/>
</g>
<!-- fh -->
<g id="node43" class="node">
<title>fh</title>
<ellipse fill="none" stroke="black" cx="1186.38" cy="-951.05" rx="27" ry="18"/>
<text text-anchor="middle" x="1186.38" y="-946.85" font-family="Times,serif" font-size="14.00">fh</text>
</g>
<!-- bd&#45;&gt;fh -->
<g id="edge80" class="edge">
<title>bd-&gt;fh</title>
<path fill="none" stroke="black" d="M1452.02,-992.7C1399.82,-984.52 1284.17,-966.38 1224.16,-956.98"/>
<polygon fill="black" stroke="black" points="1224.85,-953.54 1214.43,-955.45 1223.77,-960.46 1224.85,-953.54"/>
</g>
<!-- sv -->
<g id="node51" class="node">
<title>sv</title>
<ellipse fill="none" stroke="black" cx="1543.91" cy="-833.71" rx="27" ry="18"/>
<text text-anchor="middle" x="1543.91" y="-829.51" font-family="Times,serif" font-size="14.00">sv</text>
</g>
<!-- bd&#45;&gt;sv -->
<g id="edge81" class="edge">
<title>bd-&gt;sv</title>
<path fill="none" stroke="black" d="M1485.83,-979.12C1497.1,-950.92 1519.16,-895.67 1532.61,-861.99"/>
<polygon fill="black" stroke="black" points="1535.8,-863.45 1536.25,-852.87 1529.29,-860.86 1535.8,-863.45"/>
</g>
<!-- zc&#45;&gt;bd -->
<g id="edge32" class="edge">
<title>zc-&gt;bd</title>
<path fill="none" stroke="black" d="M1635.19,-1103.09C1604.32,-1082.14 1543.33,-1040.74 1507.29,-1016.27"/>
<polygon fill="black" stroke="black" points="1509.33,-1013.43 1499.09,-1010.71 1505.4,-1019.22 1509.33,-1013.43"/>
</g>
<!-- jq -->
<g id="node35" class="node">
<title>jq</title>
<ellipse fill="none" stroke="black" cx="1712.4" cy="-998.98" rx="27" ry="18"/>
<text text-anchor="middle" x="1712.4" y="-994.78" font-family="Times,serif" font-size="14.00">jq</text>
</g>
<!-- zc&#45;&gt;jq -->
<g id="edge31" class="edge">
<title>zc-&gt;jq</title>
<path fill="none" stroke="black" d="M1663.01,-1098.55C1672.48,-1079.47 1687.74,-1048.71 1698.79,-1026.42"/>
<polygon fill="black" stroke="black" points="1701.85,-1028.12 1703.16,-1017.6 1695.58,-1025.01 1701.85,-1028.12"/>
</g>
<!-- lt -->
<g id="node30" class="node">
<title>lt</title>
<ellipse fill="none" stroke="black" cx="623.06" cy="-1651.66" rx="27" ry="18"/>
<text text-anchor="middle" x="623.06" y="-1647.46" font-family="Times,serif" font-size="14.00">lt</text>
</g>
<!-- kt&#45;&gt;lt -->
<g id="edge25" class="edge">
<title>kt-&gt;lt</title>
<path fill="none" stroke="black" d="M674.04,-1649.97C670.08,-1650.1 665.94,-1650.24 661.81,-1650.38"/>
<polygon fill="black" stroke="black" points="661.73,-1646.88 651.85,-1650.71 661.96,-1653.87 661.73,-1646.88"/>
</g>
<!-- lt&#45;&gt;mx -->
<g id="edge106" class="edge">
<title>lt-&gt;mx</title>
<path fill="none" stroke="black" d="M606.05,-1637.55C591.52,-1625.5 570.4,-1607.98 553.78,-1594.2"/>
<polygon fill="black" stroke="black" points="556.17,-1591.63 546.24,-1587.94 551.71,-1597.02 556.17,-1591.63"/>
</g>
<!-- lt&#45;&gt;pm -->
<g id="edge105" class="edge">
<title>lt-&gt;pm</title>
<path fill="none" stroke="black" d="M634.02,-1634.82C654.39,-1603.5 698.23,-1536.11 722.49,-1498.81"/>
<polygon fill="black" stroke="black" points="725.15,-1501.15 727.67,-1490.85 719.28,-1497.33 725.15,-1501.15"/>
</g>
<!-- rx -->
<g id="node32" class="node">
<title>rx</title>
<ellipse fill="none" stroke="black" cx="971.72" cy="-1010.54" rx="27" ry="18"/>
<text text-anchor="middle" x="971.72" y="-1006.34" font-family="Times,serif" font-size="14.00">rx</text>
</g>
<!-- dn&#45;&gt;rx -->
<g id="edge26" class="edge">
<title>dn-&gt;rx</title>
<path fill="none" stroke="black" d="M917.7,-909.14C928.04,-928.56 944.99,-960.38 957.15,-983.19"/>
<polygon fill="black" stroke="black" points="954.01,-984.75 961.81,-991.93 960.19,-981.46 954.01,-984.75"/>
</g>
<!-- br -->
<g id="node33" class="node">
<title>br</title>
<ellipse fill="none" stroke="black" cx="1631.95" cy="-948.29" rx="27" ry="18"/>
<text text-anchor="middle" x="1631.95" y="-944.09" font-family="Times,serif" font-size="14.00">br</text>
</g>
<!-- br&#45;&gt;bd -->
<g id="edge28" class="edge">
<title>br-&gt;bd</title>
<path fill="none" stroke="black" d="M1607.34,-956.1C1582.17,-964.08 1542.83,-976.56 1514.28,-985.61"/>
<polygon fill="black" stroke="black" points="1513.46,-982.2 1504.99,-988.56 1515.58,-988.88 1513.46,-982.2"/>
</g>
<!-- nf -->
<g id="node34" class="node">
<title>nf</title>
<ellipse fill="none" stroke="black" cx="1574.43" cy="-1083.29" rx="27" ry="18"/>
<text text-anchor="middle" x="1574.43" y="-1079.09" font-family="Times,serif" font-size="14.00">nf</text>
</g>
<!-- br&#45;&gt;nf -->
<g id="edge27" class="edge">
<title>br-&gt;nf</title>
<path fill="none" stroke="black" d="M1624.43,-965.94C1614.74,-988.68 1597.79,-1028.47 1586.34,-1055.34"/>
<polygon fill="black" stroke="black" points="1583.25,-1053.67 1582.55,-1064.24 1589.69,-1056.41 1583.25,-1053.67"/>
</g>
<!-- nf&#45;&gt;bd -->
<g id="edge70" class="edge">
<title>nf-&gt;bd</title>
<path fill="none" stroke="black" d="M1558.2,-1068.63C1543.22,-1055.1 1520.74,-1034.81 1503.51,-1019.26"/>
<polygon fill="black" stroke="black" points="1505.94,-1016.74 1496.17,-1012.63 1501.25,-1021.93 1505.94,-1016.74"/>
</g>
<!-- nz -->
<g id="node37" class="node">
<title>nz</title>
<ellipse fill="none" stroke="black" cx="1510.03" cy="-1173.4" rx="27" ry="18"/>
<text text-anchor="middle" x="1510.03" y="-1169.2" font-family="Times,serif" font-size="14.00">nz</text>
</g>
<!-- nf&#45;&gt;nz -->
<g id="edge71" class="edge">
<title>nf-&gt;nz</title>
<path fill="none" stroke="black" d="M1562.62,-1099.82C1553,-1113.28 1539.25,-1132.52 1528.22,-1147.95"/>
<polygon fill="black" stroke="black" points="1525.61,-1145.57 1522.65,-1155.75 1531.31,-1149.65 1525.61,-1145.57"/>
</g>
<!-- jq&#45;&gt;bd -->
<g id="edge83" class="edge">
<title>jq-&gt;bd</title>
<path fill="none" stroke="black" d="M1685.14,-998.74C1643.74,-998.37 1564.85,-997.66 1517.5,-997.24"/>
<polygon fill="black" stroke="black" points="1517.73,-993.74 1507.7,-997.15 1517.67,-1000.74 1517.73,-993.74"/>
</g>
<!-- ng -->
<g id="node49" class="node">
<title>ng</title>
<ellipse fill="none" stroke="black" cx="1702.15" cy="-905.39" rx="27" ry="18"/>
<text text-anchor="middle" x="1702.15" y="-901.19" font-family="Times,serif" font-size="14.00">ng</text>
</g>
<!-- jq&#45;&gt;ng -->
<g id="edge82" class="edge">
<title>jq-&gt;ng</title>
<path fill="none" stroke="black" d="M1710.42,-980.93C1709,-967.94 1707.05,-950.12 1705.4,-935.05"/>
<polygon fill="black" stroke="black" points="1708.89,-934.76 1704.32,-925.2 1701.93,-935.52 1708.89,-934.76"/>
</g>
<!-- cf&#45;&gt;pm -->
<g id="edge90" class="edge">
<title>cf-&gt;pm</title>
<path fill="none" stroke="black" d="M805.02,-1373.68C792.49,-1392.62 771.79,-1423.89 757.01,-1446.21"/>
<polygon fill="black" stroke="black" points="754.13,-1444.23 751.53,-1454.5 759.97,-1448.09 754.13,-1444.23"/>
</g>
<!-- gj -->
<g id="node53" class="node">
<title>gj</title>
<ellipse fill="none" stroke="black" cx="893.76" cy="-1501.07" rx="27" ry="18"/>
<text text-anchor="middle" x="893.76" y="-1496.87" font-family="Times,serif" font-size="14.00">gj</text>
</g>
<!-- cf&#45;&gt;gj -->
<g id="edge89" class="edge">
<title>cf-&gt;gj</title>
<path fill="none" stroke="black" d="M825.36,-1374.49C838.75,-1399.26 863.45,-1444.98 879.22,-1474.16"/>
<polygon fill="black" stroke="black" points="876.03,-1475.63 883.87,-1482.76 882.19,-1472.3 876.03,-1475.63"/>
</g>
<!-- nz&#45;&gt;bd -->
<g id="edge36" class="edge">
<title>nz-&gt;bd</title>
<path fill="none" stroke="black" d="M1506.8,-1155.18C1501.37,-1124.58 1490.39,-1062.63 1483.89,-1025.96"/>
<polygon fill="black" stroke="black" points="1487.4,-1025.74 1482.21,-1016.51 1480.51,-1026.96 1487.4,-1025.74"/>
</g>
<!-- nz&#45;&gt;gm -->
<g id="edge35" class="edge">
<title>nz-&gt;gm</title>
<path fill="none" stroke="black" d="M1536.48,-1169.41C1540.89,-1168.75 1545.53,-1168.05 1550.16,-1167.35"/>
<polygon fill="black" stroke="black" points="1550.61,-1170.82 1559.97,-1165.87 1549.56,-1163.9 1550.61,-1170.82"/>
</g>
<!-- gm&#45;&gt;dj -->
<g id="edge107" class="edge">
<title>gm-&gt;dj</title>
<path fill="none" stroke="black" d="M1601.68,-1146C1615.56,-1129.95 1637.36,-1104.74 1653.52,-1086.06"/>
<polygon fill="black" stroke="black" points="1656.06,-1088.47 1659.96,-1078.62 1650.77,-1083.89 1656.06,-1088.47"/>
</g>
<!-- dd&#45;&gt;dn -->
<g id="edge37" class="edge">
<title>dd-&gt;dn</title>
<path fill="none" stroke="black" d="M964.04,-595.16C954.25,-647.47 926.08,-797.99 914.06,-862.24"/>
<polygon fill="black" stroke="black" points="910.62,-861.58 912.22,-872.05 917.5,-862.87 910.62,-861.58"/>
</g>
<!-- nb&#45;&gt;sl -->
<g id="edge38" class="edge">
<title>nb-&gt;sl</title>
<path fill="none" stroke="black" d="M921.02,-177.79C946.03,-173.01 983.95,-165.77 1012.13,-160.39"/>
<polygon fill="black" stroke="black" points="1012.51,-163.88 1021.67,-158.56 1011.19,-157 1012.51,-163.88"/>
</g>
<!-- sl&#45;&gt;kx -->
<g id="edge68" class="edge">
<title>sl-&gt;kx</title>
<path fill="none" stroke="black" d="M1059.35,-136.29C1068.59,-120.32 1082.58,-96.12 1093.35,-77.51"/>
<polygon fill="black" stroke="black" points="1096.36,-79.29 1098.34,-68.88 1090.31,-75.78 1096.36,-79.29"/>
</g>
<!-- xp&#45;&gt;dn -->
<g id="edge50" class="edge">
<title>xp-&gt;dn</title>
<path fill="none" stroke="black" d="M847.08,-1157.14C858.17,-1109.25 888.28,-979.21 901.79,-920.88"/>
<polygon fill="black" stroke="black" points="905.15,-921.91 903.99,-911.37 898.33,-920.33 905.15,-921.91"/>
</g>
<!-- fh&#45;&gt;dn -->
<g id="edge44" class="edge">
<title>fh-&gt;dn</title>
<path fill="none" stroke="black" d="M1160.24,-945.49C1110.57,-934.91 1002.42,-911.89 945.4,-899.75"/>
<polygon fill="black" stroke="black" points="946.37,-896.37 935.86,-897.72 944.91,-903.22 946.37,-896.37"/>
</g>
<!-- qq&#45;&gt;rs -->
<g id="edge46" class="edge">
<title>qq-&gt;rs</title>
<path fill="none" stroke="black" d="M870.87,-115.94C898.08,-145.77 957.45,-210.88 989.66,-246.19"/>
<polygon fill="black" stroke="black" points="986.88,-248.34 996.21,-253.37 992.06,-243.63 986.88,-248.34"/>
</g>
<!-- hd -->
<g id="node45" class="node">
<title>hd</title>
<ellipse fill="none" stroke="black" cx="982.24" cy="-97.1" rx="27" ry="18"/>
<text text-anchor="middle" x="982.24" y="-92.9" font-family="Times,serif" font-size="14.00">hd</text>
</g>
<!-- qq&#45;&gt;hd -->
<g id="edge47" class="edge">
<title>qq-&gt;hd</title>
<path fill="none" stroke="black" d="M883.84,-99.58C901.3,-99.14 924.21,-98.56 943.54,-98.07"/>
<polygon fill="black" stroke="black" points="943.61,-101.57 953.52,-97.82 943.43,-94.58 943.61,-101.57"/>
</g>
<!-- hd&#45;&gt;rs -->
<g id="edge49" class="edge">
<title>hd-&gt;rs</title>
<path fill="none" stroke="black" d="M985.32,-115.29C990.37,-145.15 1000.45,-204.81 1006.52,-240.73"/>
<polygon fill="black" stroke="black" points="1003.04,-241.16 1008.16,-250.43 1009.95,-239.99 1003.04,-241.16"/>
</g>
<!-- hd&#45;&gt;qs -->
<g id="edge48" class="edge">
<title>hd-&gt;qs</title>
<path fill="none" stroke="black" d="M1009.04,-100.62C1032.3,-103.68 1066.24,-108.14 1092.29,-111.57"/>
<polygon fill="black" stroke="black" points="1091.76,-115.03 1102.13,-112.86 1092.67,-108.09 1091.76,-115.03"/>
</g>
<!-- pj&#45;&gt;cc -->
<g id="edge51" class="edge">
<title>pj-&gt;cc</title>
<path fill="none" stroke="black" d="M194.12,-830.04C209.24,-806.67 236.8,-764.07 254.67,-736.44"/>
<polygon fill="black" stroke="black" points="257.47,-738.57 259.96,-728.27 251.59,-734.77 257.47,-738.57"/>
</g>
<!-- pj&#45;&gt;mj -->
<g id="edge52" class="edge">
<title>pj-&gt;mj</title>
<path fill="none" stroke="black" d="M177.07,-828.82C167.94,-802.37 150.8,-752.72 139.93,-721.24"/>
<polygon fill="black" stroke="black" points="143.31,-720.29 136.73,-711.98 136.69,-722.57 143.31,-720.29"/>
</g>
<!-- kb&#45;&gt;bd -->
<g id="edge62" class="edge">
<title>kb-&gt;bd</title>
<path fill="none" stroke="black" d="M1382.4,-884.93C1401.36,-906.98 1435.77,-946.96 1457.91,-972.69"/>
<polygon fill="black" stroke="black" points="1455.03,-974.71 1464.2,-980 1460.34,-970.14 1455.03,-974.71"/>
</g>
<!-- kb&#45;&gt;sv -->
<g id="edge63" class="edge">
<title>kb-&gt;sv</title>
<path fill="none" stroke="black" d="M1394.91,-863.71C1424.55,-857.75 1473.01,-847.99 1506.58,-841.23"/>
<polygon fill="black" stroke="black" points="1507.18,-844.68 1516.3,-839.27 1505.8,-837.81 1507.18,-844.68"/>
</g>
<!-- zd -->
<g id="node48" class="node">
<title>zd</title>
<ellipse fill="none" stroke="black" cx="897.59" cy="-1609.35" rx="27" ry="18"/>
<text text-anchor="middle" x="897.59" y="-1605.15" font-family="Times,serif" font-size="14.00">zd</text>
</g>
<!-- zd&#45;&gt;pm -->
<g id="edge56" class="edge">
<title>zd-&gt;pm</title>
<path fill="none" stroke="black" d="M880.97,-1594.98C853.29,-1571.05 797.57,-1522.87 764.93,-1494.64"/>
<polygon fill="black" stroke="black" points="767.38,-1492.13 757.52,-1488.24 762.8,-1497.43 767.38,-1492.13"/>
</g>
<!-- zd&#45;&gt;jv -->
<g id="edge55" class="edge">
<title>zd-&gt;jv</title>
<path fill="none" stroke="black" d="M872.01,-1615.41C862.94,-1617.56 852.53,-1620.03 842.69,-1622.35"/>
<polygon fill="black" stroke="black" points="841.92,-1618.94 833,-1624.65 843.54,-1625.75 841.92,-1618.94"/>
</g>
<!-- ng&#45;&gt;bd -->
<g id="edge61" class="edge">
<title>ng-&gt;bd</title>
<path fill="none" stroke="black" d="M1678.66,-915.01C1638.92,-931.28 1558.27,-964.31 1512.48,-983.07"/>
<polygon fill="black" stroke="black" points="1511.24,-979.8 1503.31,-986.83 1513.89,-986.27 1511.24,-979.8"/>
</g>
<!-- jk -->
<g id="node50" class="node">
<title>jk</title>
<ellipse fill="none" stroke="black" cx="1646.25" cy="-831.92" rx="27" ry="18"/>
<text text-anchor="middle" x="1646.25" y="-827.72" font-family="Times,serif" font-size="14.00">jk</text>
</g>
<!-- ng&#45;&gt;jk -->
<g id="edge60" class="edge">
<title>ng-&gt;jk</title>
<path fill="none" stroke="black" d="M1689.75,-889.08C1682.58,-879.67 1673.42,-867.62 1665.35,-857.02"/>
<polygon fill="black" stroke="black" points="1668.38,-855.22 1659.54,-849.39 1662.81,-859.46 1668.38,-855.22"/>
</g>
<!-- jk&#45;&gt;bd -->
<g id="edge93" class="edge">
<title>jk-&gt;bd</title>
<path fill="none" stroke="black" d="M1630.79,-847.15C1601.37,-876.12 1537.17,-939.34 1502.34,-973.64"/>
<polygon fill="black" stroke="black" points="1499.9,-971.13 1495.24,-980.64 1504.82,-976.12 1499.9,-971.13"/>
</g>
<!-- sv&#45;&gt;br -->
<g id="edge69" class="edge">
<title>sv-&gt;br</title>
<path fill="none" stroke="black" d="M1556.52,-850.13C1571.17,-869.19 1595.49,-900.84 1612.54,-923.04"/>
<polygon fill="black" stroke="black" points="1609.57,-924.91 1618.44,-930.7 1615.12,-920.64 1609.57,-924.91"/>
</g>
<!-- zx&#45;&gt;rs -->
<g id="edge72" class="edge">
<title>zx-&gt;rs</title>
<path fill="none" stroke="black" d="M1180.29,-172.57C1146.84,-191.9 1080.61,-230.18 1041.8,-252.61"/>
<polygon fill="black" stroke="black" points="1040.31,-249.43 1033.41,-257.46 1043.82,-255.49 1040.31,-249.43"/>
</g>
<!-- gj&#45;&gt;pm -->
<g id="edge67" class="edge">
<title>gj-&gt;pm</title>
<path fill="none" stroke="black" d="M867.24,-1496.19C842.45,-1491.62 805.15,-1484.75 777.25,-1479.61"/>
<polygon fill="black" stroke="black" points="777.89,-1476.17 767.42,-1477.8 776.63,-1483.06 777.89,-1476.17"/>
</g>
<!-- gj&#45;&gt;zd -->
<g id="edge66" class="edge">
<title>gj-&gt;zd</title>
<path fill="none" stroke="black" d="M894.41,-1519.44C894.99,-1535.85 895.85,-1560.2 896.53,-1579.42"/>
<polygon fill="black" stroke="black" points="893.03,-1579.51 896.88,-1589.38 900.03,-1579.26 893.03,-1579.51"/>
</g>
<!-- kx&#45;&gt;jx -->
<g id="edge87" class="edge">
<title>kx-&gt;jx</title>
<path fill="none" stroke="black" d="M1084.57,-42.2C1073.86,-38.51 1061.1,-34.11 1049.4,-30.08"/>
<polygon fill="black" stroke="black" points="1050.65,-26.81 1040.05,-26.86 1048.37,-33.43 1050.65,-26.81"/>
</g>
<!-- mn&#45;&gt;cc -->
<g id="edge109" class="edge">
<title>mn-&gt;cc</title>
<path fill="none" stroke="black" d="M83.12,-599.77C120.11,-621.41 198.37,-667.19 241.54,-692.45"/>
<polygon fill="black" stroke="black" points="239.5,-695.31 249.9,-697.34 243.04,-689.27 239.5,-695.31"/>
</g>
<!-- rh&#45;&gt;rs -->
<g id="edge76" class="edge">
<title>rh-&gt;rs</title>
<path fill="none" stroke="black" d="M901.11,-325.82C922.45,-315.06 955.18,-298.54 979.46,-286.29"/>
<polygon fill="black" stroke="black" points="980.92,-289.47 988.27,-281.84 977.77,-283.22 980.92,-289.47"/>
</g>
<!-- rh&#45;&gt;nb -->
<g id="edge75" class="edge">
<title>rh-&gt;nb</title>
<path fill="none" stroke="black" d="M881.11,-318.57C883.75,-292.28 888.66,-243.51 891.81,-212.14"/>
<polygon fill="black" stroke="black" points="895.25,-212.86 892.77,-202.56 888.29,-212.16 895.25,-212.86"/>
</g>
<!-- ln&#45;&gt;cc -->
<g id="edge104" class="edge">
<title>ln-&gt;cc</title>
<path fill="none" stroke="black" d="M144.17,-619.87C169.43,-637.73 214.45,-669.59 243.69,-690.28"/>
<polygon fill="black" stroke="black" points="241.53,-693.04 251.71,-695.95 245.57,-687.32 241.53,-693.04"/>
</g>
<!-- ln&#45;&gt;zr -->
<g id="edge103" class="edge">
<title>ln-&gt;zr</title>
<path fill="none" stroke="black" d="M115.36,-623.77C103.36,-644.48 83.08,-679.48 69.04,-703.71"/>
<polygon fill="black" stroke="black" points="66.19,-701.65 64.21,-712.05 72.25,-705.15 66.19,-701.65"/>
</g>
<!-- pc&#45;&gt;pm -->
<g id="edge92" class="edge">
<title>pc-&gt;pm</title>
<path fill="none" stroke="black" d="M791.27,-1661.31C781.45,-1625.51 759.37,-1545.04 747.47,-1501.67"/>
<polygon fill="black" stroke="black" points="750.89,-1500.92 744.87,-1492.2 744.14,-1502.77 750.89,-1500.92"/>
</g>
<!-- pc&#45;&gt;kt -->
<g id="edge91" class="edge">
<title>pc-&gt;kt</title>
<path fill="none" stroke="black" d="M771.81,-1671.5C761.17,-1668.11 748.5,-1664.06 736.85,-1660.35"/>
<polygon fill="black" stroke="black" points="738.14,-1657.09 727.55,-1657.38 736.01,-1663.76 738.14,-1657.09"/>
</g>
<!-- vf&#45;&gt;pm -->
<g id="edge94" class="edge">
<title>vf-&gt;pm</title>
<path fill="none" stroke="black" d="M583.68,-1490.6C614.73,-1487.02 665.97,-1481.13 701.16,-1477.07"/>
<polygon fill="black" stroke="black" points="701.39,-1480.57 710.92,-1475.95 700.58,-1473.62 701.39,-1480.57"/>
</g>
</g>
</svg>