<svg xmlns="http://www.w3.org/2000/svg" xmlns:xlink="http://www.w3.org/1999/xlink" width="1843pt" height="980pt" viewBox="0.00 0.00 1843.00 980.00">
<g id="graph0" class="graph" transform="scale(1 1) rotate(0) translate(4 976)">
<title>aoc</title>
<polygon fill="white" stroke="none" points="-4,4 -4,-976 1839,-976 1839,4 -4,4"/>
<!-- broadcaster -->
<g id="node1" class="node">
<title>broadcaster</title>
<ellipse fill="none" stroke="black" cx="973" cy="-954" rx="55.54" ry="18"/>
<text text-anchor="middle" x="973" y="-949.8" font-family="Times,serif" font-size="14.00">broadcaster</text>
</g>
<!-- gz -->
<g id="node2" class="node">
<title>gz</title>
<ellipse fill="none" stroke="black" cx="259" cy="-882" rx="27" ry="18"/>
<text text-anchor="middle" x="259" y="-877.8" font-family="Times,serif" font-size="14.00">gz</text>
</g>
<!-- broadcaster&#45;&gt;gz -->
<g id="edge1" class="edge">
<title>broadcaster-&gt;gz</title>
<path fill="none" stroke="black" d="M920.21,-947.82C782.81,-934.35 416.52,-898.44 297.17,-886.74"/>
<polygon fill="black" stroke="black" points="297.57,-883.26 287.27,-885.77 296.89,-890.23 297.57,-883.26"/>
</g>
<!-- xg -->
<g id="node3" class="node">
<title>xg</title>
<ellipse fill="none" stroke="black" cx="1660" cy="-882" rx="27" ry="18"/>
<text text-anchor="middle" x="1660" y="-877.8" font-family="Times,serif" font-size="14.00">xg</text>
</g>
<!-- broadcaster&#45;&gt;xg -->
<g id="edge2" class="edge">
<title>broadcaster-&gt;xg</title>
<path fill="none" stroke="black" d="M1025.48,-947.65C1158.48,-934.1 1506.34,-898.66 1621.99,-886.87"/>
<polygon fill="black" stroke="black" points="1622.28,-890.36 1631.87,-885.87 1621.57,-883.4 1622.28,-890.36"/>
</g>
<!-- cd -->
<g id="node4" class="node">
<title>cd</title>
<ellipse fill="none" stroke="black" cx="730" cy="-882" rx="27" ry="18"/>
<text text-anchor="middle" x="730" y="-877.8" font-family="Times,serif" font-size="14.00">cd</text>
</g>
<!-- broadcaster&#45;&gt;cd -->
<g id="edge3" class="edge">
<title>broadcaster-&gt;cd</title>
<path fill="none" stroke="black" d="M932.33,-941.28C885.59,-927.82 809.66,-905.95 765.31,-893.17"/>
<polygon fill="black" stroke="black" points="766.52,-889.88 755.94,-890.47 764.58,-896.6 766.52,-889.88"/>
</g>
<!-- sg -->
<g id="node5" class="node">
<title>sg</title>
<ellipse fill="none" stroke="black" cx="1165" cy="-882" rx="27" ry="18"/>
<text text-anchor="middle" x="1165" y="-877.8" font-family="Times,serif" font-size="14.00">sg</text>
</g>
<!-- broadcaster&#45;&gt;sg -->
<g id="edge4" class="edge">
<title>broadcaster-&gt;sg</title>
<path fill="none" stroke="black" d="M1008.66,-940C1043.7,-927.23 1096.76,-907.88 1131.15,-895.34"/>
<polygon fill="black" stroke="black" points="1132,-898.76 1140.19,-892.04 1129.6,-892.18 1132,-898.76"/>
</g>
<!-- bd -->
<g id="node27" class="node">
<title>bd</title>
<ellipse fill="none" stroke="black" cx="259" cy="-738" rx="27" ry="18"/>
<text text-anchor="middle" x="259" y="-733.8" font-family="Times,serif" font-size="14.00">bd</text>
</g>
<!-- gz&#45;&gt;bd -->
<g id="edge53" class="edge">
<title>gz-&gt;bd</title>
<path fill="none" stroke="black" d="M254.42,-863.87C251.89,-839.99 251.57,-796.38 253.46,-767.54"/>
<polygon fill="black" stroke="black" points="256.94,-767.95 254.28,-757.7 249.97,-767.37 256.94,-767.95"/>
</g>
<!-- kb -->
<g id="node47" class="node">
<title>kb</title>
<ellipse fill="none" stroke="black" cx="195" cy="-810" rx="27" ry="18"/>
<text text-anchor="middle" x="195" y="-805.8" font-family="Times,serif" font-size="14.00">kb</text>
</g>
<!-- gz&#45;&gt;kb -->
<g id="edge54" class="edge">
<title>gz-&gt;kb</title>
<path fill="none" stroke="black" d="M245.43,-866.15C236.94,-856.87 225.83,-844.73 216.2,-834.19"/>
<polygon fill="black" stroke="black" points="218.91,-831.96 209.57,-826.94 213.74,-836.68 218.91,-831.96"/>
</g>
<!-- pm -->
<g id="node20" class="node">
<title>pm</title>
<ellipse fill="none" stroke="black" cx="1664" cy="-594" rx="27" ry="18"/>
<text text-anchor="middle" x="1664" y="-589.8" font-family="Times,serif" font-size="14.00">pm</text>
</g>
<!-- xg&#45;&gt;pm -->
<g id="edge34" class="edge">
<title>xg-&gt;pm</title>
<path fill="none" stroke="black" d="M1653.76,-864.31C1653.41,-853.88 1654.46,-840.17 1655,-828 1658.57,-748.07 1658.51,-727.99 1657,-648 1656.85,-639.93 1656.57,-631.17 1656.62,-623.14"/>
<polygon fill="black" stroke="black" points="1660.12,-623.33 1656.97,-613.22 1653.12,-623.09 1660.12,-623.33"/>
</g>
<!-- cf -->
<g id="node36" class="node">
<title>cf</title>
<ellipse fill="none" stroke="black" cx="1628" cy="-810" rx="27" ry="18"/>
<text text-anchor="middle" x="1628" y="-805.8" font-family="Times,serif" font-size="14.00">cf</text>
</g>
<!-- xg&#45;&gt;cf -->
<g id="edge33" class="edge">
<title>xg-&gt;cf</title>
<path fill="none" stroke="black" d="M1652.42,-864.41C1648.79,-856.48 1644.36,-846.78 1640.27,-837.84"/>
<polygon fill="black" stroke="black" points="1643.5,-836.49 1636.16,-828.85 1637.13,-839.4 1643.5,-836.49"/>
</g>
<!-- cc -->
<g id="node9" class="node">
<title>cc</title>
<ellipse fill="none" stroke="black" cx="730" cy="-810" rx="27" ry="18"/>
<text text-anchor="middle" x="730" y="-805.8" font-family="Times,serif" font-size="14.00">cc</text>
</g>
<!-- cd&#45;&gt;cc -->
<g id="edge29" class="edge">
<title>cd-&gt;cc</title>
<path fill="none" stroke="black" d="M724.12,-864.05C723.33,-856.57 723.08,-847.58 723.37,-839.14"/>
<polygon fill="black" stroke="black" points="726.85,-839.51 724.04,-829.3 719.87,-839.04 726.85,-839.51"/>
</g>
<!-- nl -->
<g id="node12" class="node">
<title>nl</title>
<ellipse fill="none" stroke="black" cx="542" cy="-738" rx="27" ry="18"/>
<text text-anchor="middle" x="542" y="-733.8" font-family="Times,serif" font-size="14.00">nl</text>
</g>
<!-- cd&#45;&gt;nl -->
<g id="edge30" class="edge">
<title>cd-&gt;nl</title>
<path fill="none" stroke="black" d="M712.65,-867.9C679.63,-842.96 607.58,-788.53 568.49,-759.01"/>
<polygon fill="black" stroke="black" points="570.6,-756.22 560.52,-752.99 566.39,-761.81 570.6,-756.22"/>
</g>
<!-- rs -->
<g id="node8" class="node">
<title>rs</title>
<ellipse fill="none" stroke="black" cx="1197" cy="-738" rx="27" ry="18"/>
<text text-anchor="middle" x="1197" y="-733.8" font-family="Times,serif" font-size="14.00">rs</text>
</g>
<!-- sg&#45;&gt;rs -->
<g id="edge85" class="edge">
<title>sg-&gt;rs</title>
<path fill="none" stroke="black" d="M1164.31,-863.59C1167.26,-839.24 1177,-794.81 1185.45,-766.11"/>
<polygon fill="black" stroke="black" points="1188.76,-767.27 1188.4,-756.68 1182.07,-765.18 1188.76,-767.27"/>
</g>
<!-- rh -->
<g id="node56" class="node">
<title>rh</title>
<ellipse fill="none" stroke="black" cx="1133" cy="-810" rx="27" ry="18"/>
<text text-anchor="middle" x="1133" y="-805.8" font-family="Times,serif" font-size="14.00">rh</text>
</g>
<!-- sg&#45;&gt;rh -->
<g id="edge86" class="edge">
<title>sg-&gt;rh</title>
<path fill="none" stroke="black" d="M1157.42,-864.41C1153.79,-856.48 1149.36,-846.78 1145.27,-837.84"/>
<polygon fill="black" stroke="black" points="1148.5,-836.49 1141.16,-828.85 1142.13,-839.4 1148.5,-836.49"/>
</g>
<!-- jx -->
<g id="node6" class="node">
<title>jx</title>
<ellipse fill="none" stroke="black" cx="1256" cy="-450" rx="27" ry="18"/>
<text text-anchor="middle" x="1256" y="-445.8" font-family="Times,serif" font-size="14.00">jx</text>
</g>
<!-- rt -->
<g id="node7" class="node">
<title>rt</title>
<ellipse fill="none" stroke="black" cx="1294" cy="-378" rx="27" ry="18"/>
<text text-anchor="middle" x="1294" y="-373.8" font-family="Times,serif" font-size="14.00">rt</text>
</g>
<!-- jx&#45;&gt;rt -->
<g id="edge5" class="edge">
<title>jx-&gt;rt</title>
<path fill="none" stroke="black" d="M1264.81,-432.76C1269.27,-424.55 1274.8,-414.37 1279.84,-405.09"/>
<polygon fill="black" stroke="black" points="1282.82,-406.94 1284.51,-396.48 1276.67,-403.6 1282.82,-406.94"/>
</g>
<!-- jx&#45;&gt;rs -->
<g id="edge6" class="edge">
<title>jx-&gt;rs</title>
<path fill="none" stroke="black" d="M1256.46,-468.28C1256.95,-507.79 1255.04,-607.23 1227,-684 1223.54,-693.46 1218.51,-703.22 1213.54,-711.75"/>
<polygon fill="black" stroke="black" points="1210.64,-709.78 1208.42,-720.14 1216.62,-713.42 1210.64,-709.78"/>
</g>
<!-- qq -->
<g id="node44" class="node">
<title>qq</title>
<ellipse fill="none" stroke="black" cx="1313" cy="-306" rx="27" ry="18"/>
<text text-anchor="middle" x="1313" y="-301.8" font-family="Times,serif" font-size="14.00">qq</text>
</g>
<!-- rt&#45;&gt;qq -->
<g id="edge45" class="edge">
<title>rt-&gt;qq</title>
<path fill="none" stroke="black" d="M1298.6,-360.05C1300.65,-352.49 1303.13,-343.37 1305.44,-334.85"/>
<polygon fill="black" stroke="black" points="1308.8,-335.82 1308.05,-325.25 1302.05,-333.98 1308.8,-335.82"/>
</g>
<!-- rs&#45;&gt;sg -->
<g id="edge95" class="edge">
<title>rs-&gt;sg</title>
<path fill="none" stroke="black" d="M1197.7,-756.35C1194.77,-780.57 1185.09,-824.8 1176.65,-853.53"/>
<polygon fill="black" stroke="black" points="1173.34,-852.4 1173.71,-862.99 1180.02,-854.48 1173.34,-852.4"/>
</g>
<!-- rs&#45;&gt;rt -->
<g id="edge100" class="edge">
<title>rs-&gt;rt</title>
<path fill="none" stroke="black" d="M1216.34,-725.19C1248.86,-703.67 1311,-654.75 1311,-595 1311,-595 1311,-595 1311,-521 1311,-481.24 1304.35,-435.67 1299.37,-407.1"/>
<polygon fill="black" stroke="black" points="1302.85,-406.68 1297.63,-397.46 1295.96,-407.92 1302.85,-406.68"/>
</g>
<!-- dd -->
<g id="node39" class="node">
<title>dd</title>
<ellipse fill="none" stroke="black" cx="994" cy="-666" rx="27" ry="18"/>
<text text-anchor="middle" x="994" y="-661.8" font-family="Times,serif" font-size="14.00">dd</text>
</g>
<!-- rs&#45;&gt;dd -->
<g id="edge96" class="edge">
<title>rs-&gt;dd</title>
<path fill="none" stroke="black" d="M1172.3,-730.28C1139.39,-721.08 1079.55,-703.46 1030,-684 1028.47,-683.4 1026.92,-682.76 1025.36,-682.11"/>
<polygon fill="black" stroke="black" points="1027.06,-679.03 1016.5,-678.16 1024.21,-685.43 1027.06,-679.03"/>
</g>
<!-- nb -->
<g id="node40" class="node">
<title>nb</title>
<ellipse fill="none" stroke="black" cx="1066" cy="-666" rx="27" ry="18"/>
<text text-anchor="middle" x="1066" y="-661.8" font-family="Times,serif" font-size="14.00">nb</text>
</g>
<!-- rs&#45;&gt;nb -->
<g id="edge99" class="edge">
<title>rs-&gt;nb</title>
<path fill="none" stroke="black" d="M1176.24,-725.91C1154.78,-714.44 1121.04,-696.41 1096.53,-683.32"/>
<polygon fill="black" stroke="black" points="1098.46,-680.38 1088,-678.75 1095.17,-686.55 1098.46,-680.38"/>
</g>
<!-- sl -->
<g id="node41" class="node">
<title>sl</title>
<ellipse fill="none" stroke="black" cx="1142" cy="-594" rx="27" ry="18"/>
<text text-anchor="middle" x="1142" y="-589.8" font-family="Times,serif" font-size="14.00">sl</text>
</g>
<!-- rs&#45;&gt;sl -->
<g id="edge97" class="edge">
<title>rs-&gt;sl</title>
<path fill="none" stroke="black" d="M1190.47,-720.15C1181.13,-696.03 1163.83,-651.36 1152.62,-622.43"/>
<polygon fill="black" stroke="black" points="1155.94,-621.3 1149.06,-613.24 1149.41,-623.83 1155.94,-621.3"/>
</g>
<!-- kx -->
<g id="node54" class="node">
<title>kx</title>
<ellipse fill="none" stroke="black" cx="1218" cy="-522" rx="27" ry="18"/>
<text text-anchor="middle" x="1218" y="-517.8" font-family="Times,serif" font-size="14.00">kx</text>
</g>
<!-- rs&#45;&gt;kx -->
<g id="edge98" class="edge">
<title>rs-&gt;kx</title>
<path fill="none" stroke="black" d="M1202.48,-720.01C1205.56,-709.71 1209.14,-696.23 1211,-684 1218.01,-637.89 1218.86,-583.56 1218.6,-551.27"/>
<polygon fill="black" stroke="black" points="1222.1,-551.5 1218.47,-541.55 1215.1,-551.59 1222.1,-551.5"/>
</g>
<!-- cc&#45;&gt;cd -->
<g id="edge7" class="edge">
<title>cc-&gt;cd</title>
<path fill="none" stroke="black" d="M735.86,-827.79C736.66,-835.25 736.92,-844.24 736.64,-852.69"/>
<polygon fill="black" stroke="black" points="733.16,-852.33 735.98,-862.54 740.14,-852.8 733.16,-852.33"/>
</g>
<!-- fc -->
<g id="node10" class="node">
<title>fc</title>
<ellipse fill="none" stroke="black" cx="956" cy="-594" rx="27" ry="18"/>
<text text-anchor="middle" x="956" y="-589.8" font-family="Times,serif" font-size="14.00">fc</text>
</g>
<!-- cc&#45;&gt;fc -->
<g id="edge8" class="edge">
<title>cc-&gt;fc</title>
<path fill="none" stroke="black" d="M757.15,-809.2C797.42,-807.96 872.76,-799.51 915,-756 949.75,-720.21 956.26,-659.29 956.83,-623.54"/>
<polygon fill="black" stroke="black" points="960.33,-623.96 956.82,-613.96 953.33,-623.96 960.33,-623.96"/>
</g>
<!-- qr -->
<g id="node11" class="node">
<title>qr</title>
<ellipse fill="none" stroke="black" cx="654" cy="-522" rx="27" ry="18"/>
<text text-anchor="middle" x="654" y="-517.8" font-family="Times,serif" font-size="14.00">qr</text>
</g>
<!-- cc&#45;&gt;qr -->
<g id="edge9" class="edge">
<title>cc-&gt;qr</title>
<path fill="none" stroke="black" d="M707.28,-799.9C686.62,-790.87 656.09,-775.57 634,-756 604.45,-729.83 594.14,-721.56 582,-684 565.45,-632.82 605.51,-576.07 632.29,-545.5"/>
<polygon fill="black" stroke="black" points="634.63,-548.12 638.75,-538.36 629.44,-543.43 634.63,-548.12"/>
</g>
<!-- cc&#45;&gt;nl -->
<g id="edge10" class="edge">
<title>cc-&gt;nl</title>
<path fill="none" stroke="black" d="M706.19,-800.8C677.02,-790.67 626.13,-772.71 583,-756 580.36,-754.98 577.63,-753.9 574.9,-752.8"/>
<polygon fill="black" stroke="black" points="576.46,-749.66 565.88,-749.12 573.82,-756.14 576.46,-749.66"/>
</g>
<!-- gk -->
<g id="node13" class="node">
<title>gk</title>
<ellipse fill="none" stroke="black" cx="694" cy="-450" rx="27" ry="18"/>
<text text-anchor="middle" x="694" y="-445.8" font-family="Times,serif" font-size="14.00">gk</text>
</g>
<!-- cc&#45;&gt;gk -->
<g id="edge11" class="edge">
<title>cc-&gt;gk</title>
<path fill="none" stroke="black" d="M726.25,-792.05C720.71,-765.52 711,-712.52 711,-667 711,-667 711,-667 711,-593 711,-553.24 704.35,-507.67 699.37,-479.1"/>
<polygon fill="black" stroke="black" points="702.85,-478.68 697.63,-469.46 695.96,-479.92 702.85,-478.68"/>
</g>
<!-- zr -->
<g id="node14" class="node">
<title>zr</title>
<ellipse fill="none" stroke="black" cx="770" cy="-306" rx="27" ry="18"/>
<text text-anchor="middle" x="770" y="-301.8" font-family="Times,serif" font-size="14.00">zr</text>
</g>
<!-- cc&#45;&gt;zr -->
<g id="edge12" class="edge">
<title>cc-&gt;zr</title>
<path fill="none" stroke="black" d="M740.99,-793.22C757.55,-767.85 787,-715.88 787,-667 787,-667 787,-667 787,-449 787,-409.24 780.35,-363.67 775.37,-335.1"/>
<polygon fill="black" stroke="black" points="778.85,-334.68 773.63,-325.46 771.96,-335.92 778.85,-334.68"/>
</g>
<!-- dn -->
<g id="node31" class="node">
<title>dn</title>
<ellipse fill="none" stroke="black" cx="988" cy="-450" rx="27" ry="18"/>
<text text-anchor="middle" x="988" y="-445.8" font-family="Times,serif" font-size="14.00">dn</text>
</g>
<!-- fc&#45;&gt;dn -->
<g id="edge88" class="edge">
<title>fc-&gt;dn</title>
<path fill="none" stroke="black" d="M959.86,-575.87C965.27,-551.88 975.16,-507.99 981.65,-479.16"/>
<polygon fill="black" stroke="black" points="985.01,-480.19 983.79,-469.67 978.18,-478.65 985.01,-480.19"/>
</g>
<!-- qr&#45;&gt;gk -->
<g id="edge59" class="edge">
<title>qr-&gt;gk</title>
<path fill="none" stroke="black" d="M663.28,-504.76C667.97,-496.55 673.79,-486.37 679.09,-477.09"/>
<polygon fill="black" stroke="black" points="682.1,-478.88 684.02,-468.46 676.02,-475.41 682.1,-478.88"/>
</g>
<!-- pj -->
<g id="node46" class="node">
<title>pj</title>
<ellipse fill="none" stroke="black" cx="618" cy="-666" rx="27" ry="18"/>
<text text-anchor="middle" x="618" y="-661.8" font-family="Times,serif" font-size="14.00">pj</text>
</g>
<!-- nl&#45;&gt;pj -->
<g id="edge108" class="edge">
<title>nl-&gt;pj</title>
<path fill="none" stroke="black" d="M557.38,-722.83C567.99,-713.06 582.3,-699.88 594.35,-688.78"/>
<polygon fill="black" stroke="black" points="596.55,-691.52 601.53,-682.17 591.8,-686.37 596.55,-691.52"/>
</g>
<!-- ln -->
<g id="node57" class="node">
<title>ln</title>
<ellipse fill="none" stroke="black" cx="732" cy="-378" rx="27" ry="18"/>
<text text-anchor="middle" x="732" y="-373.8" font-family="Times,serif" font-size="14.00">ln</text>
</g>
<!-- gk&#45;&gt;ln -->
<g id="edge77" class="edge">
<title>gk-&gt;ln</title>
<path fill="none" stroke="black" d="M702.81,-432.76C707.27,-424.55 712.8,-414.37 717.84,-405.09"/>
<polygon fill="black" stroke="black" points="720.82,-406.94 722.51,-396.48 714.67,-403.6 720.82,-406.94"/>
</g>
<!-- cq -->
<g id="node17" class="node">
<title>cq</title>
<ellipse fill="none" stroke="black" cx="789" cy="-234" rx="27" ry="18"/>
<text text-anchor="middle" x="789" y="-229.8" font-family="Times,serif" font-size="14.00">cq</text>
</g>
<!-- zr&#45;&gt;cq -->
<g id="edge15" class="edge">
<title>zr-&gt;cq</title>
<path fill="none" stroke="black" d="M774.6,-288.05C776.65,-280.49 779.13,-271.37 781.44,-262.85"/>
<polygon fill="black" stroke="black" points="784.8,-263.82 784.05,-253.25 778.05,-261.98 784.8,-263.82"/>
</g>
<!-- qs -->
<g id="node15" class="node">
<title>qs</title>
<ellipse fill="none" stroke="black" cx="1246" cy="-162" rx="27" ry="18"/>
<text text-anchor="middle" x="1246" y="-157.8" font-family="Times,serif" font-size="14.00">qs</text>
</g>
<!-- qs&#45;&gt;rs -->
<g id="edge14" class="edge">
<title>qs-&gt;rs</title>
<path fill="none" stroke="black" d="M1230.78,-177.13C1206.82,-200.99 1163,-251.89 1163,-305 1163,-451 1163,-451 1163,-451 1163,-506.95 1171.39,-520.44 1178,-576 1183.52,-622.34 1189.86,-676.2 1193.64,-708.39"/>
<polygon fill="black" stroke="black" points="1190.14,-708.58 1194.78,-718.1 1197.09,-707.76 1190.14,-708.58"/>
</g>
<!-- cl -->
<g id="node16" class="node">
<title>cl</title>
<ellipse fill="none" stroke="black" cx="1246" cy="-90" rx="27" ry="18"/>
<text text-anchor="middle" x="1246" y="-85.8" font-family="Times,serif" font-size="14.00">cl</text>
</g>
<!-- qs&#45;&gt;cl -->
<g id="edge13" class="edge">
<title>qs-&gt;cl</title>
<path fill="none" stroke="black" d="M1246,-143.7C1246,-136.41 1246,-127.73 1246,-119.54"/>
<polygon fill="black" stroke="black" points="1249.5,-119.62 1246,-109.62 1242.5,-119.62 1249.5,-119.62"/>
</g>
<!-- cl&#45;&gt;rs -->
<g id="edge65" class="edge">
<title>cl-&gt;rs</title>
<path fill="none" stroke="black" d="M1222.54,-99.32C1178.31,-116.67 1087,-161.2 1087,-233 1087,-523 1087,-523 1087,-523 1087,-563.45 1089.51,-575.07 1106,-612 1123.46,-651.12 1154.52,-690.05 1175.44,-713.82"/>
<polygon fill="black" stroke="black" points="1172.62,-715.92 1181.9,-721.03 1177.83,-711.25 1172.62,-715.92"/>
</g>
<!-- zx -->
<g id="node52" class="node">
<title>zx</title>
<ellipse fill="none" stroke="black" cx="1330" cy="-18" rx="27" ry="18"/>
<text text-anchor="middle" x="1330" y="-13.8" font-family="Times,serif" font-size="14.00">zx</text>
</g>
<!-- cl&#45;&gt;zx -->
<g id="edge64" class="edge">
<title>cl-&gt;zx</title>
<path fill="none" stroke="black" d="M1262.2,-75.5C1274.32,-65.4 1291.13,-51.39 1304.97,-39.86"/>
<polygon fill="black" stroke="black" points="1306.96,-42.75 1312.4,-33.66 1302.48,-37.38 1306.96,-42.75"/>
</g>
<!-- cq&#45;&gt;cc -->
<g id="edge58" class="edge">
<title>cq-&gt;cc</title>
<path fill="none" stroke="black" d="M796.11,-251.7C806.6,-277.89 825,-330.46 825,-377 825,-667 825,-667 825,-667 825,-717.05 783.73,-762.81 755.59,-788.2"/>
<polygon fill="black" stroke="black" points="753.36,-785.5 748.12,-794.71 757.96,-790.77 753.36,-785.5"/>
</g>
<!-- cj -->
<g id="node22" class="node">
<title>cj</title>
<ellipse fill="none" stroke="black" cx="789" cy="-162" rx="27" ry="18"/>
<text text-anchor="middle" x="789" y="-157.8" font-family="Times,serif" font-size="14.00">cj</text>
</g>
<!-- cq&#45;&gt;cj -->
<g id="edge57" class="edge">
<title>cq-&gt;cj</title>
<path fill="none" stroke="black" d="M789,-215.7C789,-208.41 789,-199.73 789,-191.54"/>
<polygon fill="black" stroke="black" points="792.5,-191.62 789,-181.62 785.5,-191.62 792.5,-191.62"/>
</g>
<!-- mx -->
<g id="node18" class="node">
<title>mx</title>
<ellipse fill="none" stroke="black" cx="1742" cy="-162" rx="27" ry="18"/>
<text text-anchor="middle" x="1742" y="-157.8" font-family="Times,serif" font-size="14.00">mx</text>
</g>
<!-- nr -->
<g id="node19" class="node">
<title>nr</title>
<ellipse fill="none" stroke="black" cx="1780" cy="-90" rx="27" ry="18"/>
<text text-anchor="middle" x="1780" y="-85.8" font-family="Times,serif" font-size="14.00">nr</text>
</g>
<!-- mx&#45;&gt;nr -->
<g id="edge16" class="edge">
<title>mx-&gt;nr</title>
<path fill="none" stroke="black" d="M1750.81,-144.76C1755.27,-136.55 1760.8,-126.37 1765.84,-117.09"/>
<polygon fill="black" stroke="black" points="1768.82,-118.94 1770.51,-108.48 1762.67,-115.6 1768.82,-118.94"/>
</g>
<!-- mx&#45;&gt;pm -->
<g id="edge17" class="edge">
<title>mx-&gt;pm</title>
<path fill="none" stroke="black" d="M1745.36,-179.97C1750.31,-206.52 1759,-259.56 1759,-305 1759,-451 1759,-451 1759,-451 1759,-501.05 1717.73,-546.81 1689.59,-572.2"/>
<polygon fill="black" stroke="black" points="1687.36,-569.5 1682.12,-578.71 1691.96,-574.77 1687.36,-569.5"/>
</g>
<!-- nr&#45;&gt;pm -->
<g id="edge102" class="edge">
<title>nr-&gt;pm</title>
<path fill="none" stroke="black" d="M1783.36,-107.97C1788.31,-134.52 1797,-187.56 1797,-233 1797,-451 1797,-451 1797,-451 1797,-510.22 1734.61,-554.93 1695.3,-577.23"/>
<polygon fill="black" stroke="black" points="1693.79,-574.06 1686.7,-581.94 1697.15,-580.2 1693.79,-574.06"/>
</g>
<!-- vf -->
<g id="node59" class="node">
<title>vf</title>
<ellipse fill="none" stroke="black" cx="1807" cy="-18" rx="27" ry="18"/>
<text text-anchor="middle" x="1807" y="-13.8" font-family="Times,serif" font-size="14.00">vf</text>
</g>
<!-- nr&#45;&gt;vf -->
<g id="edge101" class="edge">
<title>nr-&gt;vf</title>
<path fill="none" stroke="black" d="M1786.54,-72.05C1789.52,-64.32 1793.13,-54.96 1796.48,-46.27"/>
<polygon fill="black" stroke="black" points="1799.65,-47.79 1799.98,-37.2 1793.12,-45.27 1799.65,-47.79"/>
</g>
<!-- pm&#45;&gt;xg -->
<g id="edge40" class="edge">
<title>pm-&gt;xg</title>
<path fill="none" stroke="black" d="M1672.48,-611.23C1674.23,-621.72 1674.77,-635.66 1675,-648 1676.51,-727.99 1676.57,-748.07 1673,-828 1672.63,-836.3 1672.02,-845.32 1671.01,-853.52"/>
<polygon fill="black" stroke="black" points="1667.57,-852.85 1669.43,-863.28 1674.48,-853.97 1667.57,-852.85"/>
</g>
<!-- jv -->
<g id="node24" class="node">
<title>jv</title>
<ellipse fill="none" stroke="black" cx="1552" cy="-522" rx="27" ry="18"/>
<text text-anchor="middle" x="1552" y="-517.8" font-family="Times,serif" font-size="14.00">jv</text>
</g>
<!-- pm&#45;&gt;jv -->
<g id="edge42" class="edge">
<title>pm-&gt;jv</title>
<path fill="none" stroke="black" d="M1644.75,-580.97C1627.2,-570 1601.03,-553.64 1580.96,-541.1"/>
<polygon fill="black" stroke="black" points="1583,-538.24 1572.66,-535.91 1579.29,-544.18 1583,-538.24"/>
</g>
<!-- sp -->
<g id="node25" class="node">
<title>sp</title>
<ellipse fill="none" stroke="black" cx="1590" cy="-450" rx="27" ry="18"/>
<text text-anchor="middle" x="1590" y="-445.8" font-family="Times,serif" font-size="14.00">sp</text>
</g>
<!-- pm&#45;&gt;sp -->
<g id="edge43" class="edge">
<title>pm-&gt;sp</title>
<path fill="none" stroke="black" d="M1653.35,-577.07C1646.61,-566.71 1637.89,-552.79 1631,-540 1620.09,-519.76 1609.27,-496.08 1601.49,-478.24"/>
<polygon fill="black" stroke="black" points="1604.72,-476.89 1597.55,-469.1 1598.29,-479.66 1604.72,-476.89"/>
</g>
<!-- kt -->
<g id="node29" class="node">
<title>kt</title>
<ellipse fill="none" stroke="black" cx="1666" cy="-306" rx="27" ry="18"/>
<text text-anchor="middle" x="1666" y="-301.8" font-family="Times,serif" font-size="14.00">kt</text>
</g>
<!-- pm&#45;&gt;kt -->
<g id="edge39" class="edge">
<title>pm-&gt;kt</title>
<path fill="none" stroke="black" d="M1664.81,-575.82C1665.26,-565.45 1665.77,-551.97 1666,-540 1667.39,-466.41 1666.8,-379.71 1666.35,-335.72"/>
<polygon fill="black" stroke="black" points="1669.85,-335.72 1666.24,-325.76 1662.85,-335.8 1669.85,-335.72"/>
</g>
<!-- xp -->
<g id="node42" class="node">
<title>xp</title>
<ellipse fill="none" stroke="black" cx="1442" cy="-522" rx="27" ry="18"/>
<text text-anchor="middle" x="1442" y="-517.8" font-family="Times,serif" font-size="14.00">xp</text>
</g>
<!-- pm&#45;&gt;xp -->
<g id="edge41" class="edge">
<title>pm-&gt;xp</title>
<path fill="none" stroke="black" d="M1639.82,-585.38C1600.45,-572.96 1522.35,-548.34 1476.95,-534.02"/>
<polygon fill="black" stroke="black" points="1478.18,-530.74 1467.59,-531.07 1476.08,-537.42 1478.18,-530.74"/>
</g>
<!-- mj -->
<g id="node21" class="node">
<title>mj</title>
<ellipse fill="none" stroke="black" cx="654" cy="-594" rx="27" ry="18"/>
<text text-anchor="middle" x="654" y="-589.8" font-family="Times,serif" font-size="14.00">mj</text>
</g>
<!-- mj&#45;&gt;cc -->
<g id="edge19" class="edge">
<title>mj-&gt;cc</title>
<path fill="none" stroke="black" d="M656.83,-612C662.18,-641.98 675.26,-705.83 697,-756 701.15,-765.58 706.85,-775.45 712.34,-784.04"/>
<polygon fill="black" stroke="black" points="709.3,-785.79 717.76,-792.18 715.13,-781.92 709.3,-785.79"/>
</g>
<!-- mj&#45;&gt;qr -->
<g id="edge18" class="edge">
<title>mj-&gt;qr</title>
<path fill="none" stroke="black" d="M654,-575.7C654,-568.41 654,-559.73 654,-551.54"/>
<polygon fill="black" stroke="black" points="657.5,-551.62 654,-541.62 650.5,-551.62 657.5,-551.62"/>
</g>
<!-- cj&#45;&gt;cc -->
<g id="edge20" class="edge">
<title>cj-&gt;cc</title>
<path fill="none" stroke="black" d="M761.67,-163.38C687.33,-165.98 487,-184.2 487,-305 487,-667 487,-667 487,-667 487,-707.45 477.72,-727.09 506,-756 531.57,-782.14 635.03,-797.99 691.97,-804.9"/>
<polygon fill="black" stroke="black" points="691.52,-808.38 701.86,-806.07 692.34,-801.42 691.52,-808.38"/>
</g>
<!-- nt -->
<g id="node23" class="node">
<title>nt</title>
<ellipse fill="none" stroke="black" cx="846" cy="-90" rx="27" ry="18"/>
<text text-anchor="middle" x="846" y="-85.8" font-family="Times,serif" font-size="14.00">nt</text>
</g>
<!-- cj&#45;&gt;nt -->
<g id="edge21" class="edge">
<title>cj-&gt;nt</title>
<path fill="none" stroke="black" d="M801.37,-145.81C808.69,-136.82 818.13,-125.23 826.43,-115.03"/>
<polygon fill="black" stroke="black" points="829.1,-117.3 832.7,-107.33 823.67,-112.88 829.1,-117.3"/>
</g>
<!-- nt&#45;&gt;cc -->
<g id="edge74" class="edge">
<title>nt-&gt;cc</title>
<path fill="none" stroke="black" d="M849.36,-107.97C854.31,-134.52 863,-187.56 863,-233 863,-667 863,-667 863,-667 863,-726.22 800.61,-770.93 761.3,-793.23"/>
<polygon fill="black" stroke="black" points="759.79,-790.06 752.7,-797.94 763.15,-796.2 759.79,-790.06"/>
</g>
<!-- mn -->
<g id="node55" class="node">
<title>mn</title>
<ellipse fill="none" stroke="black" cx="874" cy="-18" rx="27" ry="18"/>
<text text-anchor="middle" x="874" y="-13.8" font-family="Times,serif" font-size="14.00">mn</text>
</g>
<!-- nt&#45;&gt;mn -->
<g id="edge73" class="edge">
<title>nt-&gt;mn</title>
<path fill="none" stroke="black" d="M852.64,-72.41C855.77,-64.57 859.6,-54.99 863.15,-46.13"/>
<polygon fill="black" stroke="black" points="866.39,-47.46 866.85,-36.88 859.89,-44.86 866.39,-47.46"/>
</g>
<!-- jv&#45;&gt;sp -->
<g id="edge22" class="edge">
<title>jv-&gt;sp</title>
<path fill="none" stroke="black" d="M1560.81,-504.76C1565.27,-496.55 1570.8,-486.37 1575.84,-477.09"/>
<polygon fill="black" stroke="black" points="1578.82,-478.94 1580.51,-468.48 1572.67,-475.6 1578.82,-478.94"/>
</g>
<!-- pc -->
<g id="node58" class="node">
<title>pc</title>
<ellipse fill="none" stroke="black" cx="1628" cy="-378" rx="27" ry="18"/>
<text text-anchor="middle" x="1628" y="-373.8" font-family="Times,serif" font-size="14.00">pc</text>
</g>
<!-- sp&#45;&gt;pc -->
<g id="edge84" class="edge">
<title>sp-&gt;pc</title>
<path fill="none" stroke="black" d="M1598.81,-432.76C1603.27,-424.55 1608.8,-414.37 1613.84,-405.09"/>
<polygon fill="black" stroke="black" points="1616.82,-406.94 1618.51,-396.48 1610.67,-403.6 1616.82,-406.94"/>
</g>
<!-- dj -->
<g id="node26" class="node">
<title>dj</title>
<ellipse fill="none" stroke="black" cx="242" cy="-306" rx="27" ry="18"/>
<text text-anchor="middle" x="242" y="-301.8" font-family="Times,serif" font-size="14.00">dj</text>
</g>
<!-- dj&#45;&gt;bd -->
<g id="edge23" class="edge">
<title>dj-&gt;bd</title>
<path fill="none" stroke="black" d="M245.36,-323.97C250.31,-350.52 259,-403.56 259,-449 259,-595 259,-595 259,-595 259,-634.26 259,-679.62 259,-708.31"/>
<polygon fill="black" stroke="black" points="255.5,-708 259,-718 262.5,-708 255.5,-708"/>
</g>
<!-- zc -->
<g id="node28" class="node">
<title>zc</title>
<ellipse fill="none" stroke="black" cx="280" cy="-234" rx="27" ry="18"/>
<text text-anchor="middle" x="280" y="-229.8" font-family="Times,serif" font-size="14.00">zc</text>
</g>
<!-- dj&#45;&gt;zc -->
<g id="edge24" class="edge">
<title>dj-&gt;zc</title>
<path fill="none" stroke="black" d="M250.81,-288.76C255.27,-280.55 260.8,-270.37 265.84,-261.09"/>
<polygon fill="black" stroke="black" points="268.82,-262.94 270.51,-252.48 262.67,-259.6 268.82,-262.94"/>
</g>
<!-- bd&#45;&gt;gz -->
<g id="edge79" class="edge">
<title>bd-&gt;gz</title>
<path fill="none" stroke="black" d="M263.59,-756.19C266.11,-780.1 266.43,-823.72 264.53,-852.53"/>
<polygon fill="black" stroke="black" points="261.05,-852.11 263.71,-862.36 268.03,-852.69 261.05,-852.11"/>
</g>
<!-- gm -->
<g id="node38" class="node">
<title>gm</title>
<ellipse fill="none" stroke="black" cx="185" cy="-378" rx="27" ry="18"/>
<text text-anchor="middle" x="185" y="-373.8" font-family="Times,serif" font-size="14.00">gm</text>
</g>
<!-- bd&#45;&gt;gm -->
<g id="edge78" class="edge">
<title>bd-&gt;gm</title>
<path fill="none" stroke="black" d="M234.49,-730.16C209.24,-722.2 169.76,-707.12 142,-684 112.07,-659.06 103.64,-649.18 92,-612 67.43,-533.56 129.63,-444.14 164.02,-402.56"/>
<polygon fill="black" stroke="black" points="166.52,-405.02 170.32,-395.13 161.18,-400.5 166.52,-405.02"/>
</g>
<!-- fh -->
<g id="node43" class="node">
<title>fh</title>
<ellipse fill="none" stroke="black" cx="542" cy="-594" rx="27" ry="18"/>
<text text-anchor="middle" x="542" y="-589.8" font-family="Times,serif" font-size="14.00">fh</text>
</g>
<!-- bd&#45;&gt;fh -->
<g id="edge80" class="edge">
<title>bd-&gt;fh</title>
<path fill="none" stroke="black" d="M284.81,-731.65C318.4,-724.05 378.3,-708.29 425,-684 460.22,-665.68 495.84,-636.76 518.37,-616.89"/>
<polygon fill="black" stroke="black" points="520.66,-619.53 525.77,-610.25 515.99,-614.32 520.66,-619.53"/>
</g>
<!-- sv -->
<g id="node51" class="node">
<title>sv</title>
<ellipse fill="none" stroke="black" cx="27" cy="-666" rx="27" ry="18"/>
<text text-anchor="middle" x="27" y="-661.8" font-family="Times,serif" font-size="14.00">sv</text>
</g>
<!-- bd&#45;&gt;sv -->
<g id="edge81" class="edge">
<title>bd-&gt;sv</title>
<path fill="none" stroke="black" d="M233.67,-731.02C196.81,-722.09 126.4,-704.13 68,-684 65.26,-683.06 62.44,-682.02 59.62,-680.94"/>
<polygon fill="black" stroke="black" points="60.93,-677.7 50.34,-677.24 58.33,-684.2 60.93,-677.7"/>
</g>
<!-- zc&#45;&gt;bd -->
<g id="edge32" class="edge">
<title>zc-&gt;bd</title>
<path fill="none" stroke="black" d="M283.36,-251.97C288.31,-278.52 297,-331.56 297,-377 297,-595 297,-595 297,-595 297,-636.05 282,-681.57 270.85,-709.74"/>
<polygon fill="black" stroke="black" points="267.63,-708.36 267.08,-718.94 274.11,-711.01 267.63,-708.36"/>
</g>
<!-- jq -->
<g id="node35" class="node">
<title>jq</title>
<ellipse fill="none" stroke="black" cx="318" cy="-162" rx="27" ry="18"/>
<text text-anchor="middle" x="318" y="-157.8" font-family="Times,serif" font-size="14.00">jq</text>
</g>
<!-- zc&#45;&gt;jq -->
<g id="edge31" class="edge">
<title>zc-&gt;jq</title>
<path fill="none" stroke="black" d="M288.81,-216.76C293.27,-208.55 298.8,-198.37 303.84,-189.09"/>
<polygon fill="black" stroke="black" points="306.82,-190.94 308.51,-180.48 300.67,-187.6 306.82,-190.94"/>
</g>
<!-- lt -->
<g id="node30" class="node">
<title>lt</title>
<ellipse fill="none" stroke="black" cx="1704" cy="-234" rx="27" ry="18"/>
<text text-anchor="middle" x="1704" y="-229.8" font-family="Times,serif" font-size="14.00">lt</text>
</g>
<!-- kt&#45;&gt;lt -->
<g id="edge25" class="edge">
<title>kt-&gt;lt</title>
<path fill="none" stroke="black" d="M1674.81,-288.76C1679.27,-280.55 1684.8,-270.37 1689.84,-261.09"/>
<polygon fill="black" stroke="black" points="1692.82,-262.94 1694.51,-252.48 1686.67,-259.6 1692.82,-262.94"/>
</g>
<!-- lt&#45;&gt;mx -->
<g id="edge106" class="edge">
<title>lt-&gt;mx</title>
<path fill="none" stroke="black" d="M1712.81,-216.76C1717.27,-208.55 1722.8,-198.37 1727.84,-189.09"/>
<polygon fill="black" stroke="black" points="1730.82,-190.94 1732.51,-180.48 1724.67,-187.6 1730.82,-190.94"/>
</g>
<!-- lt&#45;&gt;pm -->
<g id="edge105" class="edge">
<title>lt-&gt;pm</title>
<path fill="none" stroke="black" d="M1707.36,-251.97C1712.31,-278.52 1721,-331.56 1721,-377 1721,-451 1721,-451 1721,-451 1721,-494.34 1697.85,-540.12 1681.05,-567.62"/>
<polygon fill="black" stroke="black" points="1678.18,-565.62 1675.8,-575.94 1684.1,-569.35 1678.18,-565.62"/>
</g>
<!-- rx -->
<g id="node32" class="node">
<title>rx</title>
<ellipse fill="none" stroke="black" cx="988" cy="-378" rx="27" ry="18"/>
<text text-anchor="middle" x="988" y="-373.8" font-family="Times,serif" font-size="14.00">rx</text>
</g>
<!-- dn&#45;&gt;rx -->
<g id="edge26" class="edge">
<title>dn-&gt;rx</title>
<path fill="none" stroke="black" d="M988,-431.7C988,-424.41 988,-415.73 988,-407.54"/>
<polygon fill="black" stroke="black" points="991.5,-407.62 988,-397.62 984.5,-407.62 991.5,-407.62"/>
</g>
<!-- br -->
<g id="node33" class="node">
<title>br</title>
<ellipse fill="none" stroke="black" cx="128" cy="-594" rx="27" ry="18"/>
<text text-anchor="middle" x="128" y="-589.8" font-family="Times,serif" font-size="14.00">br</text>
</g>
<!-- br&#45;&gt;bd -->
<g id="edge28" class="edge">
<title>br-&gt;bd</title>
<path fill="none" stroke="black" d="M132.51,-612.15C138.3,-631.47 149.95,-662.93 169,-684 184.55,-701.2 207.03,-714.44 225.63,-723.39"/>
<polygon fill="black" stroke="black" points="224.13,-726.55 234.68,-727.53 227.04,-720.19 224.13,-726.55"/>
</g>
<!-- nf -->
<g id="node34" class="node">
<title>nf</title>
<ellipse fill="none" stroke="black" cx="166" cy="-522" rx="27" ry="18"/>
<text text-anchor="middle" x="166" y="-517.8" font-family="Times,serif" font-size="14.00">nf</text>
</g>
<!-- br&#45;&gt;nf -->
<g id="edge27" class="edge">
<title>br-&gt;nf</title>
<path fill="none" stroke="black" d="M136.81,-576.76C141.27,-568.55 146.8,-558.37 151.84,-549.09"/>
<polygon fill="black" stroke="black" points="154.82,-550.94 156.51,-540.48 148.67,-547.6 154.82,-550.94"/>
</g>
<!-- nf&#45;&gt;bd -->
<g id="edge70" class="edge">
<title>nf-&gt;bd</title>
<path fill="none" stroke="black" d="M167.41,-540.06C170.56,-570.69 180.12,-636.24 207,-684 213.78,-696.04 223.99,-707.29 233.58,-716.3"/>
<polygon fill="black" stroke="black" points="231.18,-718.84 240.97,-722.89 235.84,-713.62 231.18,-718.84"/>
</g>
<!-- nz -->
<g id="node37" class="node">
<title>nz</title>
<ellipse fill="none" stroke="black" cx="185" cy="-450" rx="27" ry="18"/>
<text text-anchor="middle" x="185" y="-445.8" font-family="Times,serif" font-size="14.00">nz</text>
</g>
<!-- nf&#45;&gt;nz -->
<g id="edge71" class="edge">
<title>nf-&gt;nz</title>
<path fill="none" stroke="black" d="M170.6,-504.05C172.65,-496.49 175.13,-487.37 177.44,-478.85"/>
<polygon fill="black" stroke="black" points="180.8,-479.82 180.05,-469.25 174.05,-477.98 180.8,-479.82"/>
</g>
<!-- jq&#45;&gt;bd -->
<g id="edge83" class="edge">
<title>jq-&gt;bd</title>
<path fill="none" stroke="black" d="M321.36,-179.97C326.31,-206.52 335,-259.56 335,-305 335,-595 335,-595 335,-595 335,-641.27 303.24,-687.06 280.78,-713.65"/>
<polygon fill="black" stroke="black" points="278.23,-711.25 274.29,-721.09 283.5,-715.86 278.23,-711.25"/>
</g>
<!-- ng -->
<g id="node49" class="node">
<title>ng</title>
<ellipse fill="none" stroke="black" cx="356" cy="-90" rx="27" ry="18"/>
<text text-anchor="middle" x="356" y="-85.8" font-family="Times,serif" font-size="14.00">ng</text>
</g>
<!-- jq&#45;&gt;ng -->
<g id="edge82" class="edge">
<title>jq-&gt;ng</title>
<path fill="none" stroke="black" d="M326.81,-144.76C331.27,-136.55 336.8,-126.37 341.84,-117.09"/>
<polygon fill="black" stroke="black" points="344.82,-118.94 346.51,-108.48 338.67,-115.6 344.82,-118.94"/>
</g>
<!-- cf&#45;&gt;pm -->
<g id="edge90" class="edge">
<title>cf-&gt;pm</title>
<path fill="none" stroke="black" d="M1630.89,-791.85C1637.06,-755.14 1651.61,-668.66 1659.2,-623.53"/>
<polygon fill="black" stroke="black" points="1662.64,-624.17 1660.85,-613.73 1655.74,-623.01 1662.64,-624.17"/>
</g>
<!-- gj -->
<g id="node53" class="node">
<title>gj</title>
<ellipse fill="none" stroke="black" cx="1590" cy="-738" rx="27" ry="18"/>
<text text-anchor="middle" x="1590" y="-733.8" font-family="Times,serif" font-size="14.00">gj</text>
</g>
<!-- cf&#45;&gt;gj -->
<g id="edge89" class="edge">
<title>cf-&gt;gj</title>
<path fill="none" stroke="black" d="M1619.19,-792.76C1614.73,-784.55 1609.2,-774.37 1604.16,-765.09"/>
<polygon fill="black" stroke="black" points="1607.33,-763.6 1599.49,-756.48 1601.18,-766.94 1607.33,-763.6"/>
</g>
<!-- nz&#45;&gt;bd -->
<g id="edge36" class="edge">
<title>nz-&gt;bd</title>
<path fill="none" stroke="black" d="M190.69,-467.61C194.16,-478.01 198.57,-491.72 202,-504 224.13,-583.22 224.94,-604.23 245,-684 247.03,-692.06 249.3,-700.79 251.42,-708.8"/>
<polygon fill="black" stroke="black" points="248.01,-709.62 253.97,-718.38 254.78,-707.81 248.01,-709.62"/>
</g>
<!-- nz&#45;&gt;gm -->
<g id="edge35" class="edge">
<title>nz-&gt;gm</title>
<path fill="none" stroke="black" d="M185,-431.7C185,-424.41 185,-415.73 185,-407.54"/>
<polygon fill="black" stroke="black" points="188.5,-407.62 185,-397.62 181.5,-407.62 188.5,-407.62"/>
</g>
<!-- gm&#45;&gt;dj -->
<g id="edge107" class="edge">
<title>gm-&gt;dj</title>
<path fill="none" stroke="black" d="M197.37,-361.81C204.69,-352.82 214.13,-341.23 222.43,-331.03"/>
<polygon fill="black" stroke="black" points="225.1,-333.3 228.7,-323.33 219.67,-328.88 225.1,-333.3"/>
</g>
<!-- dd&#45;&gt;dn -->
<g id="edge37" class="edge">
<title>dd-&gt;dn</title>
<path fill="none" stroke="black" d="M993.66,-647.6C993.29,-629.66 992.68,-600.87 992,-576 991.1,-542.99 989.86,-505.07 989,-479.74"/>
<polygon fill="black" stroke="black" points="992.5,-479.78 988.66,-469.9 985.5,-480.02 992.5,-479.78"/>
</g>
<!-- nb&#45;&gt;sl -->
<g id="edge38" class="edge">
<title>nb-&gt;sl</title>
<path fill="none" stroke="black" d="M1081.38,-650.83C1091.99,-641.06 1106.3,-627.88 1118.35,-616.78"/>
<polygon fill="black" stroke="black" points="1120.55,-619.52 1125.53,-610.17 1115.8,-614.37 1120.55,-619.52"/>
</g>
<!-- sl&#45;&gt;kx -->
<g id="edge68" class="edge">
<title>sl-&gt;kx</title>
<path fill="none" stroke="black" d="M1157.38,-578.83C1167.99,-569.06 1182.3,-555.88 1194.35,-544.78"/>
<polygon fill="black" stroke="black" points="1196.55,-547.52 1201.53,-538.17 1191.8,-542.37 1196.55,-547.52"/>
</g>
<!-- xp&#45;&gt;dn -->
<g id="edge50" class="edge">
<title>xp-&gt;dn</title>
<path fill="none" stroke="black" d="M1415.63,-516.93C1338.75,-505.08 1114.64,-470.53 1025.35,-456.76"/>
<polygon fill="black" stroke="black" points="1026.07,-453.33 1015.66,-455.26 1025.01,-460.25 1026.07,-453.33"/>
</g>
<!-- fh&#45;&gt;dn -->
<g id="edge44" class="edge">
<title>fh-&gt;dn</title>
<path fill="none" stroke="black" d="M550.86,-576.7C563.05,-556.04 587.03,-521.05 618,-504 674.56,-472.87 866.7,-458.12 949.51,-453.08"/>
<polygon fill="black" stroke="black" points="949.62,-456.58 959.39,-452.5 949.2,-449.6 949.62,-456.58"/>
</g>
<!-- qq&#45;&gt;rs -->
<g id="edge46" class="edge">
<title>qq-&gt;rs</title>
<path fill="none" stroke="black" d="M1320.11,-323.7C1330.6,-349.89 1349,-402.46 1349,-449 1349,-595 1349,-595 1349,-595 1349,-659.39 1275.27,-702.97 1230.51,-723.49"/>
<polygon fill="black" stroke="black" points="1229.2,-720.24 1221.47,-727.48 1232.03,-726.64 1229.2,-720.24"/>
</g>
<!-- hd -->
<g id="node45" class="node">
<title>hd</title>
<ellipse fill="none" stroke="black" cx="1313" cy="-234" rx="27" ry="18"/>
<text text-anchor="middle" x="1313" y="-229.8" font-family="Times,serif" font-size="14.00">hd</text>
</g>
<!-- qq&#45;&gt;hd -->
<g id="edge47" class="edge">
<title>qq-&gt;hd</title>
<path fill="none" stroke="black" d="M1313,-287.7C1313,-280.41 1313,-271.73 1313,-263.54"/>
<polygon fill="black" stroke="black" points="1316.5,-263.62 1313,-253.62 1309.5,-263.62 1316.5,-263.62"/>
</g>
<!-- hd&#45;&gt;rs -->
<g id="edge49" class="edge">
<title>hd-&gt;rs</title>
<path fill="none" stroke="black" d="M1326.92,-249.84C1348.35,-274.32 1387,-325.57 1387,-377 1387,-595 1387,-595 1387,-595 1387,-670.93 1288.43,-711.15 1233.29,-727.71"/>
<polygon fill="black" stroke="black" points="1232.33,-724.34 1223.69,-730.47 1234.26,-731.07 1232.33,-724.34"/>
</g>
<!-- hd&#45;&gt;qs -->
<g id="edge48" class="edge">
<title>hd-&gt;qs</title>
<path fill="none" stroke="black" d="M1299.12,-218.5C1290.04,-209.02 1278.01,-196.44 1267.68,-185.66"/>
<polygon fill="black" stroke="black" points="1270.35,-183.38 1260.91,-178.58 1265.3,-188.22 1270.35,-183.38"/>
</g>
<!-- pj&#45;&gt;cc -->
<g id="edge51" class="edge">
<title>pj-&gt;cc</title>
<path fill="none" stroke="black" d="M623.05,-684.13C629.27,-703.15 641.23,-734.05 659,-756 670.37,-770.04 686.26,-782.36 700.12,-791.58"/>
<polygon fill="black" stroke="black" points="698.18,-794.49 708.49,-796.91 701.94,-788.58 698.18,-794.49"/>
</g>
<!-- pj&#45;&gt;mj -->
<g id="edge52" class="edge">
<title>pj-&gt;mj</title>
<path fill="none" stroke="black" d="M626.35,-648.76C630.58,-640.55 635.81,-630.37 640.58,-621.09"/>
<polygon fill="black" stroke="black" points="643.54,-622.99 645,-612.49 637.32,-619.79 643.54,-622.99"/>
</g>
<!-- kb&#45;&gt;bd -->
<g id="edge62" class="edge">
<title>kb-&gt;bd</title>
<path fill="none" stroke="black" d="M208.57,-794.15C217.06,-784.87 228.17,-772.73 237.8,-762.19"/>
<polygon fill="black" stroke="black" points="240.26,-764.68 244.43,-754.94 235.09,-759.96 240.26,-764.68"/>
</g>
<!-- kb&#45;&gt;sv -->
<g id="edge63" class="edge">
<title>kb-&gt;sv</title>
<path fill="none" stroke="black" d="M178.89,-795.38C149.49,-770.53 86.94,-717.66 51.98,-688.11"/>
<polygon fill="black" stroke="black" points="54.36,-685.54 44.46,-681.76 49.84,-690.89 54.36,-685.54"/>
</g>
<!-- zd -->
<g id="node48" class="node">
<title>zd</title>
<ellipse fill="none" stroke="black" cx="1552" cy="-666" rx="27" ry="18"/>
<text text-anchor="middle" x="1552" y="-661.8" font-family="Times,serif" font-size="14.00">zd</text>
</g>
<!-- zd&#45;&gt;pm -->
<g id="edge56" class="edge">
<title>zd-&gt;pm</title>
<path fill="none" stroke="black" d="M1571.25,-652.97C1588.8,-642 1614.97,-625.64 1635.04,-613.1"/>
<polygon fill="black" stroke="black" points="1636.71,-616.18 1643.34,-607.91 1633,-610.24 1636.71,-616.18"/>
</g>
<!-- zd&#45;&gt;jv -->
<g id="edge55" class="edge">
<title>zd-&gt;jv</title>
<path fill="none" stroke="black" d="M1552,-647.59C1552,-623.61 1552,-580.14 1552,-551.42"/>
<polygon fill="black" stroke="black" points="1555.5,-551.62 1552,-541.62 1548.5,-551.62 1555.5,-551.62"/>
</g>
<!-- ng&#45;&gt;bd -->
<g id="edge61" class="edge">
<title>ng-&gt;bd</title>
<path fill="none" stroke="black" d="M359.36,-107.97C364.31,-134.52 373,-187.56 373,-233 373,-595 373,-595 373,-595 373,-649.38 321.53,-694.8 287.76,-718.74"/>
<polygon fill="black" stroke="black" points="285.86,-715.8 279.59,-724.33 289.82,-721.57 285.86,-715.8"/>
</g>
<!-- jk -->
<g id="node50" class="node">
<title>jk</title>
<ellipse fill="none" stroke="black" cx="384" cy="-18" rx="27" ry="18"/>
<text text-anchor="middle" x="384" y="-13.8" font-family="Times,serif" font-size="14.00">jk</text>
</g>
<!-- ng&#45;&gt;jk -->
<g id="edge60" class="edge">
<title>ng-&gt;jk</title>
<path fill="none" stroke="black" d="M362.64,-72.41C365.77,-64.57 369.6,-54.99 373.15,-46.13"/>
<polygon fill="black" stroke="black" points="376.39,-47.46 376.85,-36.88 369.89,-44.86 376.39,-47.46"/>
</g>
<!-- jk&#45;&gt;bd -->
<g id="edge93" class="edge">
<title>jk-&gt;bd</title>
<path fill="none" stroke="black" d="M389.33,-35.85C397.2,-62.25 411,-115.08 411,-161 411,-595 411,-595 411,-595 411,-659.39 337.27,-702.97 292.51,-723.49"/>
<polygon fill="black" stroke="black" points="291.2,-720.24 283.47,-727.48 294.03,-726.64 291.2,-720.24"/>
</g>
<!-- sv&#45;&gt;br -->
<g id="edge69" class="edge">
<title>sv-&gt;br</title>
<path fill="none" stroke="black" d="M45.06,-652.49C60.47,-641.8 82.88,-626.27 100.52,-614.04"/>
<polygon fill="black" stroke="black" points="102.29,-617.08 108.52,-608.5 98.3,-611.32 102.29,-617.08"/>
</g>
<!-- zx&#45;&gt;rs -->
<g id="edge72" class="edge">
<title>zx-&gt;rs</title>
<path fill="none" stroke="black" d="M1353.93,-26.7C1400.1,-43.24 1497,-86.79 1497,-161 1497,-595 1497,-595 1497,-595 1497,-709.4 1316.59,-731.76 1235.58,-736.04"/>
<polygon fill="black" stroke="black" points="1235.5,-732.54 1225.66,-736.49 1235.81,-739.53 1235.5,-732.54"/>
</g>
<!-- gj&#45;&gt;pm -->
<g id="edge67" class="edge">
<title>gj-&gt;pm</title>
<path fill="none" stroke="black" d="M1596.95,-720.29C1604.66,-702.18 1617.76,-672.56 1631,-648 1635.95,-638.81 1641.85,-629.03 1647.28,-620.41"/>
<polygon fill="black" stroke="black" points="1650.09,-622.51 1652.54,-612.2 1644.2,-618.73 1650.09,-622.51"/>
</g>
<!-- gj&#45;&gt;zd -->
<g id="edge66" class="edge">
<title>gj-&gt;zd</title>
<path fill="none" stroke="black" d="M1581.19,-720.76C1576.73,-712.55 1571.2,-702.37 1566.16,-693.09"/>
<polygon fill="black" stroke="black" points="1569.33,-691.6 1561.49,-684.48 1563.18,-694.94 1569.33,-691.6"/>
</g>
<!-- kx&#45;&gt;jx -->
<g id="edge87" class="edge">
<title>kx-&gt;jx</title>
<path fill="none" stroke="black" d="M1226.81,-504.76C1231.27,-496.55 1236.8,-486.37 1241.84,-477.09"/>
<polygon fill="black" stroke="black" points="1244.82,-478.94 1246.51,-468.48 1238.67,-475.6 1244.82,-478.94"/>
</g>
<!-- mn&#45;&gt;cc -->
<g id="edge109" class="edge">
<title>mn-&gt;cc</title>
<path fill="none" stroke="black" d="M879.33,-35.85C887.2,-62.25 901,-115.08 901,-161 901,-667 901,-667 901,-667 901,-737.14 814.8,-779.26 764.81,-797.79"/>
<polygon fill="black" stroke="black" points="763.81,-794.43 755.56,-801.09 766.16,-801.03 763.81,-794.43"/>
</g>
<!-- rh&#45;&gt;rs -->
<g id="edge76" class="edge">
<title>rh-&gt;rs</title>
<path fill="none" stroke="black" d="M1146.57,-794.15C1155.06,-784.87 1166.17,-772.73 1175.8,-762.19"/>
<polygon fill="black" stroke="black" points="1178.26,-764.68 1182.43,-754.94 1173.09,-759.96 1178.26,-764.68"/>
</g>
<!-- rh&#45;&gt;nb -->
<g id="edge75" class="edge">
<title>rh-&gt;nb</title>
<path fill="none" stroke="black" d="M1125.18,-792.43C1113.74,-768.17 1092.29,-722.71 1078.6,-693.7"/>
<polygon fill="black" stroke="black" points="1081.85,-692.38 1074.41,-684.83 1075.51,-695.37 1081.85,-692.38"/>
</g>
<!-- ln&#45;&gt;cc -->
<g id="edge104" class="edge">
<title>ln-&gt;cc</title>
<path fill="none" stroke="black" d="M735.36,-395.97C740.31,-422.52 749,-475.56 749,-521 749,-667 749,-667 749,-667 749,-706.83 741.57,-752.39 736,-780.93"/>
<polygon fill="black" stroke="black" points="732.6,-780.07 734.05,-790.57 739.46,-781.46 732.6,-780.07"/>
</g>
<!-- ln&#45;&gt;zr -->
<g id="edge103" class="edge">
<title>ln-&gt;zr</title>
<path fill="none" stroke="black" d="M740.81,-360.76C745.27,-352.55 750.8,-342.37 755.84,-333.09"/>
<polygon fill="black" stroke="black" points="758.82,-334.94 760.51,-324.48 752.67,-331.6 758.82,-334.94"/>
</g>
<!-- pc&#45;&gt;pm -->
<g id="edge92" class="edge">
<title>pc-&gt;pm</title>
<path fill="none" stroke="black" d="M1630.9,-396.23C1637.09,-433.01 1651.64,-519.5 1659.22,-564.57"/>
<polygon fill="black" stroke="black" points="1655.75,-565.08 1660.86,-574.36 1662.66,-563.91 1655.75,-565.08"/>
</g>
<!-- pc&#45;&gt;kt -->
<g id="edge91" class="edge">
<title>pc-&gt;kt</title>
<path fill="none" stroke="black" d="M1636.81,-360.76C1641.27,-352.55 1646.8,-342.37 1651.84,-333.09"/>
<polygon fill="black" stroke="black" points="1654.82,-334.94 1656.51,-324.48 1648.67,-331.6 1654.82,-334.94"/>
</g>
<!-- vf&#45;&gt;pm -->
<g id="edge94" class="edge">
<title>vf-&gt;pm</title>
<path fill="none" stroke="black" d="M1812.53,-35.84C1820.69,-62.21 1835,-115.02 1835,-161 1835,-451 1835,-451 1835,-451 1835,-521.14 1748.8,-563.26 1698.81,-581.79"/>
<polygon fill="black" stroke="black" points="1697.81,-578.43 1689.56,-585.09 1700.16,-585.03 1697.81,-578.43"/>
</g>
</g>
</svg>